<?xml version="1.0" encoding="UTF-8" standalone="no"?>
<!-- Created with Inkscape (http://www.inkscape.org/) -->

<svg
   xmlns:dc="http://purl.org/dc/elements/1.1/"
   xmlns:cc="http://creativecommons.org/ns#"
   xmlns:rdf="http://www.w3.org/1999/02/22-rdf-syntax-ns#"
   xmlns:svg="http://www.w3.org/2000/svg"
   xmlns="http://www.w3.org/2000/svg"
   xmlns:sodipodi="http://sodipodi.sourceforge.net/DTD/sodipodi-0.dtd"
   xmlns:inkscape="http://www.inkscape.org/namespaces/inkscape"
   width="800"
   height="600"
   viewBox="0 0 799.99999 600.00002"
   id="svg2"
   version="1.1"
   inkscape:version="0.91 r13725"
   sodipodi:docname="all.svg"
   inkscape:export-filename="/home/beej/src/go/src/github.com/beejjorgensen/eggdrop/assets/nest.png"
   inkscape:export-xdpi="90.631371"
   inkscape:export-ydpi="90.631371">
  <defs
     id="defs4" />
  <sodipodi:namedview
     id="base"
     pagecolor="#ffffff"
     bordercolor="#666666"
     borderopacity="1.0"
     inkscape:pageopacity="0.0"
     inkscape:pageshadow="2"
     inkscape:zoom="0.90509668"
     inkscape:cx="683.53285"
     inkscape:cy="302.4314"
     inkscape:document-units="px"
     inkscape:current-layer="layer1"
     showgrid="false"
     inkscape:window-width="1920"
     inkscape:window-height="1026"
     inkscape:window-x="0"
     inkscape:window-y="0"
     inkscape:window-maximized="1"
     units="px" />
  <metadata
     id="metadata7">
    <rdf:RDF>
      <cc:Work
         rdf:about="">
        <dc:format>image/svg+xml</dc:format>
        <dc:type
           rdf:resource="http://purl.org/dc/dcmitype/StillImage" />
        <dc:title></dc:title>
      </cc:Work>
    </rdf:RDF>
  </metadata>
  <g
     inkscape:label="Layer 1"
     inkscape:groupmode="layer"
     id="layer1"
     transform="translate(0,-452.36203)">
    <rect
       style="opacity:1;fill:#85bbea;fill-opacity:1;fill-rule:nonzero;stroke:none;stroke-width:2.5;stroke-linecap:round;stroke-linejoin:miter;stroke-miterlimit:4;stroke-dasharray:none;stroke-dashoffset:0;stroke-opacity:1"
       id="rect5372"
       width="800"
       height="600"
       x="0"
       y="452.36203"
       rx="1.3854471"
       ry="1.4790409" />
    <rect
       style="opacity:1;fill:#626622;fill-opacity:1;fill-rule:nonzero;stroke:none;stroke-width:2.5;stroke-linecap:round;stroke-linejoin:miter;stroke-miterlimit:4;stroke-dasharray:none;stroke-dashoffset:0;stroke-opacity:1"
       id="rect5393"
       width="800"
       height="59.375061"
       x="0"
       y="992.98694"
       rx="1.3283715"
       ry="0.87818038" />
    <g
       id="g5363"
       transform="matrix(0.25912308,0,0,0.25912308,358.64489,762.463)"
       inkscape:export-filename="/home/beej/src/go/src/github.com/beejjorgensen/eggdrop/assets/nest.png"
       inkscape:export-xdpi="90.631371"
       inkscape:export-ydpi="90.631371">
      <path
         style="fill:#d2c7b5"
         d="m 859.86582,832.56711 c -2.2034,-0.94678 -4.74522,-2.18519 -5.64862,-2.752 -2.89093,-1.81377 -11.8987,-4.06682 -16.28518,-4.07334 -2.49673,-0.004 -13.76092,-1.98617 -27.30253,-4.80511 -18.80188,-3.91397 -23.53506,-4.68356 -25.67167,-4.17394 -7.05569,1.68311 -19.19746,-0.17907 -25.91989,-3.97512 -3.86869,-2.18455 -6.30998,-3.1066 -10.93988,-4.13151 -3.89141,-0.8614 -4.70116,-0.81658 -11.26419,0.62335 -9.44707,2.07277 -22.2051,2.20153 -25.30673,0.25543 -1.13612,-0.71282 -2.06568,-1.59703 -2.06568,-1.96489 0,-2.09428 3.66521,-5.39373 9.71871,-8.74906 3.78193,-2.09606 6.74412,-4.14614 6.583,-4.55578 -0.48957,-1.24612 -10.04027,-6.08018 -12.90297,-6.53101 -3.42835,-0.53985 -5.26991,0.20218 -8.94098,3.60264 -4.89189,4.5313 -9.64125,5.00898 -16.06795,1.6161 -3.67313,-1.93927 -3.91826,-3.32988 -1.50416,-8.53971 1.14646,-2.47484 1.52172,-5.09881 1.19087,-8.33255 -0.42071,-4.11451 -0.96709,-5.16115 -4.256,-8.15734 -2.07499,-1.89047 -3.77298,-3.78616 -3.77298,-4.21265 0,-0.42649 -2.43992,-2.34703 -5.42243,-4.26785 -2.98216,-1.92083 -7.02574,-4.97182 -8.98505,-6.77999 -2.34421,-2.16322 -4.99276,-3.69361 -7.74426,-4.47484 -5.72574,-1.62588 -7.07394,-3.57859 -5.33188,-7.72251 1.47318,-3.50367 0.46753,-7.09821 -2.88439,-10.30767 -1.37815,-1.31968 -1.65014,-3.80368 -1.65014,-15.06935 l 0,-13.48921 3.08855,-0.73144 c 4.73455,-1.12128 6.55787,-6.00518 3.7327,-9.99952 -1.00737,-1.42453 1.92177,-3.15585 5.38834,-3.18463 4.2591,-0.0354 7.67575,-1.52614 10.57322,-4.61369 1.45321,-1.54858 3.95682,-3.21512 5.56358,-3.70343 2.52943,-0.76881 3.39151,-0.74709 6.43014,0.16201 6.22598,1.86283 8.42318,1.25301 12.16173,-3.37538 2.06328,-2.55399 6.86531,-3.99909 13.28994,-3.99909 5.97328,0 7.93465,-1.3705 7.9553,-5.55922 0,-1.754 0.35737,-3.50994 0.77464,-3.90211 1.33615,-1.25553 5.16525,-2.20308 8.90276,-2.20308 5.54293,0 14.20745,-1.29626 17.79899,-2.6628 4.53384,-1.72512 9.59753,-1.56441 13.87901,0.44049 2.73807,1.28208 4.35894,1.58717 7.03642,1.32435 5.41932,-0.53197 16.74411,-5.11578 21.64116,-8.75962 6.41809,-4.77552 9.27322,-4.57716 23.80188,1.6535 7.5308,3.22975 12.19616,3.62868 18.52095,1.58379 2.10287,-0.67985 6.56131,-2.1379 9.90772,-3.24011 7.23438,-2.38278 8.66108,-2.44147 14.35549,-0.59047 5.34118,1.73632 19.89773,2.06847 25.15283,0.57393 3.05171,-0.86789 3.43662,-0.8228 6.41947,0.75196 1.74516,0.92136 5.09433,1.87885 7.44233,2.12775 7.15106,0.758 28.73439,-0.32963 34.43844,-1.73541 4.13103,-1.01811 5.92439,-1.13464 9.69564,-0.62999 5.07677,0.67933 4.90842,0.74629 11.97479,-4.76894 5.41038,-4.22287 10.64173,-5.01937 18.88416,-2.87523 3.02796,0.78775 3.59017,0.71591 7.41754,-0.94821 3.08476,-1.34126 5.80561,-1.88754 10.66686,-2.14159 3.58913,-0.18758 7.55525,-0.74495 8.81325,-1.23861 1.25835,-0.49366 3.11747,-0.88572 4.13138,-0.87123 1.41706,0.0203 1.05281,0.45117 -1.5744,1.86161 -1.88046,1.0094 -4.71975,3.54914 -6.30998,5.64386 -3.46347,4.5626 -5.40212,5.72305 -11.16917,6.68642 -9.45568,1.57953 -7.20202,4.79586 4.06217,5.79672 7.51015,0.6673 9.78585,1.28027 15.59353,4.20034 3.2207,1.61946 5.083,2.01852 10.4131,2.23145 8.627,0.34467 17.3253,-0.84117 20.7419,-2.8278 3.1233,-1.81625 3.8243,-1.97008 3.0256,-0.66423 -0.5815,0.95068 2.9264,3.61423 4.76,3.61423 0.5681,0 1.0432,-0.80193 1.0559,-1.78206 0,-0.98014 0.9313,-2.51109 2.0413,-3.40212 1.1103,-0.89104 2.5428,-3.25822 3.1832,-5.26042 2.3098,-7.22006 7.9783,-10.93687 16.6842,-10.93915 2.7776,-7.1e-4 4.7142,0.49767 6.9207,1.78106 4.6227,2.68875 4.4595,4.04085 -0.7075,5.85019 l -4.3896,1.53717 0,4.51706 c 0,3.93187 0.3271,4.72313 2.5353,6.10766 1.3944,0.87483 3.4566,1.59061 4.5828,1.59061 2.9504,0 7.212,3.02904 9.8722,7.01722 1.9614,2.94023 2.1411,3.83461 1.2105,6.02185 -1.2666,2.97787 0.034,4.89237 3.1154,4.59825 1.0576,-0.10083 6.803,-0.45334 12.7677,-0.78338 5.9646,-0.33003 11.8908,-0.74111 13.1687,-0.91351 2.3012,-0.31043 2.3239,-0.24301 2.3239,6.94069 l 0,7.25416 -4.8919,1.61895 c -2.6905,0.89042 -6.4067,2.45001 -8.2582,3.46577 -3.0352,1.66489 -3.3034,2.09578 -2.7226,4.37415 l 0.6441,2.52733 -4.5218,0.01 c -6.0923,0.0134 -7.5538,0.68326 -6.7809,3.10808 0.8428,2.64435 -1.0291,3.5139 -6.4043,2.97463 -4.0333,-0.40466 -4.2467,-0.34374 -4.2467,1.21299 0,1.06068 1.1843,2.25231 3.3567,3.37697 5.6111,2.90505 17.3463,6.93899 22.8241,7.8456 2.8458,0.47099 6.0793,1.42446 7.1862,2.1188 1.9941,1.25125 1.9493,1.2817 -5.0671,3.43285 l -7.0791,2.1704 -1.2295,6.56838 c -1.6208,8.65661 -3.5113,10.76069 -13.5516,15.0819 -6.8963,2.96801 -8.4352,8.52206 -3.8576,13.92344 4.9573,5.84965 2.3666,9.17876 -8.6955,11.17342 -3.1702,0.57171 -7.1404,1.4797 -8.8226,2.01777 -4.0325,1.28993 -12.9381,6.71047 -12.9453,7.87937 0,0.50581 1.404,2.48662 3.1268,4.40183 1.7227,1.91519 2.8761,3.74214 2.5631,4.05986 -0.3133,0.31773 -2.1782,0.41385 -4.1451,0.21363 -2.4465,-0.2491 -4.4354,-0.0108 -6.2969,0.75441 -2.3008,0.94585 -2.6334,1.45548 -2.1559,3.30178 0.5429,2.09912 0.418,2.19821 -3.238,2.57047 -2.0918,0.21299 -6.1268,0.70095 -8.9671,1.08447 -2.8403,0.3835 -10.7416,0.90125 -17.5583,1.15052 l -12.39417,0.45325 -12.07738,3.90807 c -6.64256,2.14943 -13.9093,4.81825 -16.14782,5.93069 -2.23886,1.11246 -6.56441,2.75775 -9.61233,3.65616 -5.07367,1.49553 -6.3272,1.60004 -14.83748,1.23719 -8.53198,-0.36378 -10.11533,-0.2304 -19.2763,1.62392 -5.48922,1.11114 -16.3444,3.02592 -24.12275,4.25507 -7.77869,1.22915 -16.70039,2.83521 -19.82646,3.56903 -3.12607,0.73382 -8.30544,1.50123 -11.51001,1.70534 -5.14907,0.32798 -6.29173,0.17107 -9.83198,-1.35033 z M 700.16586,783.96905 c 0,-1.45738 -2.24231,-2.62034 -3.51408,-1.8225 -1.02079,0.64049 -0.69717,2.45409 0.5808,3.25599 1.63465,1.02561 2.93328,0.39098 2.93328,-1.43349 z m -8.26275,-22.10646 c 0,-1.62562 -2.00337,-3.52152 -3.72099,-3.52152 -1.16367,0 -1.394,0.38591 -0.87,1.45805 1.34717,2.75693 4.59099,4.21494 4.59099,2.06347 z m 373.90069,-26.93217 c 4.8712,-1.71773 6.1857,-3.48489 6.1857,-8.31536 0,-3.44788 -0.2927,-3.95553 -3.1781,-5.47789 -3.6383,-1.92073 -7.8806,-2.77458 -9.3149,-1.87475 -0.6183,0.38807 -0.1583,1.78219 1.2494,3.7775 2.8256,4.00738 2.8328,7.35681 0.035,10.20929 -1.2136,1.23201 -2.2065,2.42431 -2.2065,2.64955 0,0.83117 3.4442,0.37059 7.2412,-0.96834 z M 671.03967,718.03405 c 0.68168,-0.4277 1.23941,-1.60862 1.23941,-2.62428 0,-2.05864 -2.62273,-5.67042 -4.1176,-5.67042 -2.24884,0 -5.17799,2.92854 -5.17799,5.17677 0,2.65222 1.48351,3.89555 4.6478,3.89555 1.19293,0 2.72671,-0.34993 3.40838,-0.77762 z m 430.23913,-24.43919 c 1.696,-1.06406 1.8179,-1.45129 0.7182,-2.28256 -2.5156,-1.90173 -10.3835,0.41673 -10.3835,3.05973 0,1.11398 0.4954,1.22996 3.8115,0.89233 2.0964,-0.21343 4.7305,-0.96471 5.8538,-1.6695 z m -429.02416,-0.6959 c 2.48709,-0.83513 6.55236,-4.9801 5.71679,-5.82859 -2.04469,-2.07568 -9.82372,1.14157 -9.82372,4.06287 0,2.3606 1.02424,2.80089 4.10693,1.76572 z m 396.82466,-13.04223 c 5.3535,-1.76577 0.4992,-8.48208 -7.1886,-9.94566 -5.2169,-0.99314 -12.1797,6.98236 -8.7654,10.04051 1.4005,1.25467 2.14,1.34205 7.8809,0.93139 3.4845,-0.24924 7.1173,-0.71106 8.0731,-1.02624 z M 877.27681,636.90424 c -1.94381,-2.91917 -1.92591,-4.28237 0.0792,-6.07948 2.30772,-2.06702 3.32404,-1.79654 4.62301,1.23034 0.86277,2.01059 0.83936,3.13505 -0.093,4.55006 -1.83708,2.7828 -2.90814,2.8523 -4.60854,0.29908 z m 17.71395,-0.94657 c -1.49728,-1.03812 -1.53205,-1.309 -0.25132,-1.97497 1.18777,-0.61852 1.7999,-0.48728 3.08166,0.66072 2.64717,2.37124 0.28231,3.47041 -2.82862,1.31425 z"
         id="path5351"
         inkscape:connector-curvature="0" />
      <path
         style="fill:#afa798"
         d="m 859.81934,828.58275 c -16.5248,-11.71442 -21.43666,-13.18729 -54.81988,-16.43816 -4.54451,-0.44254 -9.88948,-1.31659 -11.8777,-1.94234 -1.98822,-0.62575 -6.16573,-1.6616 -9.28319,-2.30189 -3.11747,-0.64031 -7.0681,-1.6998 -8.77917,-2.3545 -2.35041,-0.89933 -5.18488,-1.19092 -11.59367,-1.19275 -6.03972,-0.002 -9.99207,-0.37566 -13.72339,-1.29847 -2.88232,-0.71282 -5.8335,-1.29604 -6.55787,-1.29604 -0.72437,0 -4.22777,1.35715 -7.78557,3.0159 -5.05611,2.35737 -7.52289,3.07113 -11.2969,3.2688 -6.12304,0.32068 -7.91984,-0.38763 -6.97479,-2.74972 0.96468,-2.41205 6.17193,-5.34711 10.36114,-5.84019 5.28368,-0.62191 9.8609,-2.63195 9.85402,-4.3275 -0.003,-0.967 -2.7577,-3.18564 -8.07477,-6.50453 -7.6248,-4.75966 -8.40632,-5.0713 -14.19575,-5.6608 -5.17936,-0.52741 -6.73758,-1.02606 -10.07745,-3.22519 -2.17276,-1.43073 -5.19383,-2.78741 -6.71348,-3.01486 -1.51966,-0.22744 -3.34366,-0.70062 -4.05391,-1.05153 -2.09358,-1.03452 -1.52,-4.45469 1.03284,-6.16231 1.85189,-1.23876 2.29773,-2.24954 2.1941,-4.97789 -0.21001,-5.55511 -3.01865,-9.85564 -7.87784,-12.06424 -5.9929,-2.72375 -8.67726,-2.54624 -10.05542,0.66498 -0.60524,1.41061 -1.57336,2.74798 -2.15072,2.97196 -3.03725,1.17768 -9.38958,-4.12148 -11.08757,-9.24933 -0.56325,-1.7007 -1.41741,-2.49432 -2.82758,-2.62739 -7.22165,-0.68144 -6.90387,-0.39127 -6.12683,-5.59353 0.83075,-5.56337 -0.66446,-8.24671 -6.33684,-11.37152 -3.4614,-1.9068 -3.50031,-1.9892 -3.50031,-7.42056 l 0,-5.49235 4.90601,-2.93673 c 2.69848,-1.61519 5.42484,-2.94348 6.059,-2.95174 0.78669,-0.0102 0.99325,1.3886 0.64966,4.40149 -0.52296,4.58655 0.77636,7.30796 4.38649,9.1879 2.54802,1.3268 10.35081,-1.23581 12.5425,-4.11917 1.5682,-2.06351 1.53481,-2.42016 -0.5925,-6.27639 -3.06961,-5.56547 -3.82428,-6.32569 -6.51725,-6.56611 -1.96584,-0.17548 -2.28189,-0.55219 -2.03883,-2.43117 0.35633,-2.75343 1.83502,-3.93191 4.93355,-3.93191 1.88046,0 3.65936,-1.25495 8.39461,-5.92142 3.30441,-3.25678 9.02946,-8.03923 12.72187,-10.62768 3.69242,-2.58844 7.31288,-5.17279 8.04516,-5.74299 0.82111,-0.63905 2.92089,-1.03674 5.47373,-1.03674 4.79687,0 8.66797,-1.1143 12.26674,-3.53101 2.01748,-1.3549 2.50464,-2.31399 2.3449,-4.61762 -0.23756,-3.42739 0.28919,-3.64656 12.15036,-5.05007 4.26048,-0.50414 9.89051,-1.43397 12.51153,-2.06628 4.7373,-1.14295 4.78516,-1.14079 8.16807,0.37063 2.19341,0.97991 5.35908,1.62206 8.9062,1.80662 5.03374,0.2619 6.12304,0.0514 12.76319,-2.46572 6.79921,-2.57756 9.1417,-3.95244 13.73097,-8.05891 3.39323,-3.03632 7.59381,-2.26897 18.08543,3.30374 5.70336,3.02953 7.07532,3.46003 11.0256,3.46003 2.58831,0 8.99951,-1.01137 15.03924,-2.37244 l 10.52742,-2.37243 7.99697,0.81481 c 4.39853,0.44816 13.52301,0.78981 20.27712,0.75924 22.62685,-0.10241 47.38479,0.28952 48.6125,0.76955 0.66859,0.26149 3.56985,-0.10668 6.44666,-0.81818 3.13365,-0.77492 7.4017,-1.26294 10.64517,-1.21709 4.97315,0.0703 5.62556,-0.0974 8.0128,-2.06018 1.42946,-1.17518 4.27253,-3.30469 6.31791,-4.73224 4.36204,-3.04469 8.15911,-3.39052 13.0813,-1.19148 4.17613,1.8657 4.98519,1.79344 9.67327,-0.86403 4.31935,-2.44833 5.16353,-2.61501 8.15636,-1.61017 3.71445,1.24728 -1.02699,5.4174 -7.38035,6.49073 -3.93513,0.66487 -10.20759,4.71777 -10.20759,6.59577 0,1.44043 7.4678,3.71819 15.72125,4.79508 4.40852,0.57523 9.50801,1.78077 12.32974,2.91486 6.26523,2.51788 12.862,3.11467 26.227,2.37256 11.5282,-0.64012 10.7843,-0.74167 17.6303,2.40703 0.9619,0.44257 1.8839,0.32403 3.019,-0.38832 1.7025,-1.06807 4.9225,-8.30696 6.1392,-13.80055 0.7684,-3.47025 4.9718,-6.86089 8.5048,-6.86089 1.0662,0 2.465,-0.33033 3.1085,-0.73407 1.3813,-0.86663 4.8313,-0.22055 3.8955,0.7295 -0.3535,0.35893 -1.4363,0.6526 -2.4065,0.6526 -1.5661,0 -1.781,0.9607 -1.9207,8.5863 l -0.1584,8.5863 -5.3302,5.5082 c -4.5658,4.7181 -5.2578,5.8604 -4.8247,7.96369 0.809,3.92911 1.919,4.34874 11.5024,4.34874 6.9159,0 8.8102,0.22003 10.2021,1.18507 2.1287,1.47589 2.1597,2.86921 0.1171,5.34637 -0.8752,1.06201 -1.3124,2.21397 -0.9719,2.55991 0.9164,0.9301 4.3131,0.76477 7.8475,-0.38194 1.7138,-0.556 4.3383,-0.92051 5.8321,-0.81002 2.3456,0.17347 2.9688,0.73171 4.5652,4.08903 3.3178,6.97691 3.0001,7.30894 -10.8228,11.31576 l -8.9899,2.60587 0,2.92154 0,2.92153 -3.9713,0 c -7.1648,0 -9.3558,3.46634 -5.3243,8.4243 2.9106,3.57956 2.5914,5.3147 -1.5493,8.42429 -4.6388,3.48371 -4.7968,5.89317 -0.5164,7.87874 1.7042,0.79052 3.0985,1.94104 3.0985,2.5567 0,0.61566 -3.053,2.80108 -6.7844,4.85648 -3.7313,2.05541 -7.4495,4.54427 -8.2627,5.53081 -1.9387,2.35206 -1.886,6.046 0.1033,7.29452 2.0715,1.29953 7.7542,1.93922 12.6127,1.41975 9.3232,-0.99676 9.0791,-1.06862 8.732,2.57132 -0.1721,1.79921 0.2031,4.12343 0.8356,5.16492 1.5152,2.50025 -0.6772,3.5522 -7.4027,3.5522 -4.8241,0 -5.0131,0.0765 -8.4064,3.40212 -3.1491,3.08628 -5.8806,4.57448 -14.4088,7.84944 -3.6105,1.38655 -3.5468,2.6956 0.2857,5.87448 1.6887,1.40005 3.07,3.25618 3.07,4.12475 0,2.0905 -5.1642,4.99565 -14.5046,8.15973 -7.2168,2.44469 -7.6454,2.50551 -14.7968,2.10095 -5.1329,-0.29038 -11.74621,-0.0151 -21.82435,0.91108 -7.95289,0.73024 -17.3707,1.58187 -20.9285,1.89249 -4.76761,0.41629 -8.57846,1.34095 -14.49355,3.51669 -10.85208,3.99169 -15.68717,5.01803 -26.11717,5.5439 -6.84086,0.34487 -9.62988,0.78896 -12.21853,1.94547 -4.1782,1.86667 -7.76871,1.90707 -10.79804,0.12161 -2.86442,-1.6884 -5.78977,-1.75206 -9.03531,-0.19657 -1.35475,0.64926 -5.34083,2.26379 -8.85767,3.58785 -3.71513,1.39869 -7.34833,3.37574 -8.67106,4.71851 -2.47366,2.51111 -7.51772,4.7634 -10.6765,4.76727 -1.09241,10e-4 -3.88108,-1.34078 -6.19706,-2.98248 z m 16.75617,-9.45714 c 1.79542,-1.12657 1.53584,-4.19653 -0.3942,-4.66123 -2.69263,-0.64826 -7.16518,-0.44577 -8.48826,0.38428 -0.68167,0.42769 -1.23941,1.39001 -1.23941,2.13847 0,1.91504 1.95001,2.91611 5.68064,2.91611 1.761,0 3.75955,-0.34994 4.44123,-0.77763 z m -136.31777,-34.6884 c 0.71128,-3.14047 -14.41987,-6.95065 -18.1956,-4.58178 -3.36776,2.11296 -0.79529,3.85586 7.9491,5.38539 6.82159,1.1932 9.84782,0.95585 10.2465,-0.80361 z m 298.68076,-11.14012 c 0,-0.72818 -6.0786,-1.63789 -7.0158,-1.04997 -0.3687,0.23151 0,0.69222 0.8487,1.02379 1.9662,0.78015 6.1671,0.798 6.1671,0.0261 z m 3.0138,-9.67256 c 1.2787,-1.49886 -0.3914,-2.69137 -3.7692,-2.69137 -2.5862,0 -3.9661,1.34034 -3.0024,2.9161 0.8393,1.37265 5.5422,1.21658 6.7716,-0.22473 z M 670.26194,742.78852 c 0.50196,0 2.55526,-0.90504 4.56345,-2.0112 2.89781,-1.59649 3.65076,-2.48792 3.65076,-4.32313 0,-3.94556 -5.00138,-6.02912 -8.51649,-3.54802 -1.96378,1.38603 -3.86421,5.55492 -3.87178,8.49363 0,1.71822 0.33739,2.09274 1.62776,1.78206 0.89857,-0.21634 2.04434,-0.39334 2.5463,-0.39334 z M 799.38665,659.8188 c 2.69537,-0.90507 2.51394,-1.80156 -0.5419,-2.67511 -2.04228,-0.58382 -3.06755,-0.50913 -5.23342,0.38126 -2.17207,0.89293 -2.45576,1.2871 -1.46492,2.03599 1.44461,1.09232 4.43779,1.19891 7.24024,0.25786 z m 271.96795,93.05389 c -0.9901,-1.61858 0.4827,-8.30784 2.7322,-12.41018 1.403,-2.5581 1.9648,-5.2342 1.8836,-8.97072 -0.065,-2.95807 0.4186,-5.95158 1.0866,-6.73452 1.9692,-2.30877 6.0132,-1.81569 10.5838,1.29048 2.1848,1.48495 3.9727,2.93286 3.9727,3.21756 0,0.28471 -1.4391,1.54594 -3.1977,2.80275 l -3.198,2.28508 2.8045,2.09105 c 2.5267,1.8839 2.7515,2.4573 2.2702,5.78812 -0.6627,4.58504 -2.8228,6.95042 -8.3399,9.13303 -5.8996,2.33393 -9.7569,2.88255 -10.598,1.50735 z m 33.7234,-66.10976 c -1.6178,-1.22314 -0.774,-2.00862 3.0589,-2.84697 3.0552,-0.66816 3.1006,-0.64527 3.1006,1.55625 0,1.92063 -0.3449,2.23437 -2.4557,2.23437 -1.3506,0 -3.0173,-0.42465 -3.7038,-0.94365 z"
         id="path5349"
         inkscape:connector-curvature="0" />
      <path
         style="fill:#aa8f69"
         d="m 861.96594,827.7905 c -3.0827,-2.13708 -2.19342,-3.3511 2.45438,-3.3511 4.63987,0 5.98154,1.03307 4.14204,3.18948 -1.41878,1.6633 -4.32761,1.73456 -6.59642,0.16157 z m -19.78412,-12.54836 c -8.22109,-2.05104 -19.1706,-3.6312 -30.6572,-4.42423 -12.3473,-0.85245 -26.08893,-3.78134 -38.02688,-8.10501 -1.64257,-0.59495 -5.53157,-0.93869 -10.68924,-0.94476 -7.50843,-0.009 -8.55711,-0.18382 -14.2016,-2.36973 -3.35192,-1.2981 -6.16814,-2.82905 -6.258,-3.40212 -0.36597,-2.3302 0.31674,-3.54222 3.26723,-5.78684 1.70144,-1.29505 3.09337,-2.83435 3.09337,-3.42066 0,-0.5863 0.94883,-2.41187 2.10872,-4.05679 2.65062,-3.75959 1.85498,-4.81896 -5.1687,-6.883 -5.05576,-1.48574 -5.62038,-1.51769 -13.24621,-0.74998 -4.67706,0.47084 -10.68511,1.64881 -14.55311,2.85336 l -6.58713,2.05146 -2.19204,-1.78489 c -1.20533,-0.98171 -3.63561,-2.86683 -5.40039,-4.18916 -2.95703,-2.21559 -3.25621,-2.88734 -3.80947,-8.56047 -0.84625,-8.67035 -2.70364,-11.5661 -10.12152,-15.77772 -3.35468,-1.9047 -6.09929,-3.8863 -6.09929,-4.40355 0,-0.51725 1.85912,-2.07946 4.13138,-3.47157 2.27225,-1.39211 4.13137,-2.89258 4.13137,-3.33437 0,-0.47828 -1.73759,-0.88387 -4.29525,-1.00252 -3.98402,-0.18482 -4.49666,-0.43412 -7.07223,-3.43938 -2.28568,-2.66726 -3.58052,-3.41829 -7.32389,-4.24789 -4.11071,-0.91092 -4.52041,-1.19116 -4.26323,-2.9161 0.17903,-1.19545 1.57405,-2.63456 3.73683,-3.8524 4.0305,-2.26949 7.8472,-5.98267 7.8527,-7.64008 0.002,-0.63792 -0.92577,-2.30306 -2.06189,-3.70032 -2.60621,-3.2052 -2.60621,-4.87264 0,-6.95142 1.52516,-1.21665 2.06568,-2.62889 2.06568,-5.39877 0,-3.27532 0.44998,-4.12092 3.54713,-6.66663 1.9507,-1.60355 4.23913,-3.75519 5.08469,-4.78142 0.8459,-1.02624 3.59292,-3.05431 6.10445,-4.50684 2.51153,-1.45253 5.60007,-3.55158 6.86324,-4.66456 1.69249,-1.49145 3.10645,-2.02359 5.37595,-2.02359 6.88562,0 16.40396,-5.42416 16.40396,-9.34794 0,-1.9341 0.42691,-2.29902 3.35675,-2.86894 1.84638,-0.35914 5.44824,-0.84372 8.00453,-1.07682 2.55629,-0.23312 6.86738,-0.82319 9.57997,-1.31129 4.51421,-0.81223 5.34565,-0.7753 9.81201,0.43564 7.39688,2.00554 14.58891,1.48017 22.69123,-1.6576 l 6.40707,-2.48128 3.67761,2.02586 c 4.18336,2.30445 7.89953,2.55395 14.45051,0.97017 2.27226,-0.54935 7.45541,-1.08977 11.51827,-1.20093 4.06286,-0.11118 11.49933,-0.93759 16.52549,-1.8365 5.02616,-0.89891 10.84417,-1.81256 12.92879,-2.03034 4.1992,-0.43869 18.01623,1.2652 20.48163,2.52579 3.41045,1.74372 8.24416,2.51501 10.93712,1.74518 1.41948,-0.40583 2.50534,-1.10277 2.41307,-1.54876 -0.0929,-0.44599 -0.11361,-1.11534 -0.0448,-1.48744 0.1446,-0.79879 37.16928,-0.79612 44.71007,0.003 4.07698,0.43214 5.3009,0.29812 7.90608,-0.86575 2.32045,-1.03675 4.61612,-1.37704 9.28904,-1.37704 l 6.2067,0 5.25477,-4.14317 c 7.06775,-5.57282 9.1744,-6.04624 14.46807,-3.25149 1.74757,0.92271 3.17771,2.06546 3.17771,2.53944 0,0.47398 -1.62673,1.82447 -3.61495,3.00109 -1.98822,1.17662 -3.61495,2.46737 -3.61495,2.86832 0,1.86515 10.51366,5.48116 19.62402,6.74928 3.12435,0.43491 8.35949,1.64465 11.63361,2.68832 8.46243,2.69734 14.48743,3.25529 27.45713,2.54272 12.8555,-0.70628 14.9274,-0.23629 16.6498,3.77686 1.2394,2.88785 3.1898,4.15935 5.5199,3.59837 1.6181,-0.38965 2.4399,0.87723 4.3066,6.64043 1.0135,3.12913 2.6065,3.61906 10.1246,3.11392 9.6199,-0.64637 12.0388,1.25309 8.4528,6.63775 -2.9478,4.42615 -0.1308,4.94842 12.1417,2.2514 5.8184,-1.27863 6.854,-0.86732 8.103,3.21812 1.2081,3.95162 -0.9161,5.5553 -10.1284,7.64667 -8.0978,1.83834 -11.1395,3.23392 -12.0591,5.53258 -0.3374,0.84114 -2.0578,2.17528 -3.825,2.96475 -1.7668,0.78947 -3.8769,2.43263 -4.6884,3.65147 -1.3709,2.05861 -1.2893,2.47171 1.1496,5.81418 1.4439,1.97896 2.6255,4.11851 2.6255,4.75454 0,0.63603 -1.5899,2.35026 -3.5327,3.8094 -4.4557,3.34603 -5.3195,5.69853 -3.2394,8.82206 2.2761,3.41775 2.104,3.85981 -2.5528,6.56322 -2.2884,1.32843 -6.0142,4.18339 -8.2793,6.34435 -5.9147,5.64269 -14.414,11.84378 -18.2276,13.29887 -4.1658,1.58948 -5.482,3.14911 -5.482,6.49629 0,1.46678 -0.7212,3.54179 -1.6026,4.61114 -0.8814,1.06934 -1.3262,2.49024 -0.9884,3.15753 0.7199,1.42315 6.1746,4.48749 14.445,8.11439 9.1592,4.01699 9.9011,6.04789 2.8785,7.8821 -2.1383,0.55851 -5.8524,2.14919 -8.2541,3.53488 -4.8809,2.81617 -8.2012,3.17401 -13.6439,1.47045 -3.0875,-0.96649 -4.014,-0.96655 -11.77824,-6.5e-4 -4.63472,0.57646 -15.45857,1.3435 -24.0532,1.70454 -19.63401,0.8248 -24.06491,1.62939 -29.85641,5.42177 -5.29952,3.47009 -9.81029,4.38465 -18.55331,3.76153 -3.40838,-0.24292 -10.84485,-0.26199 -16.52549,-0.0423 -8.58809,0.33201 -11.1406,0.69116 -15.14872,2.13137 -5.19451,1.8667 -5.01479,1.90856 -8.07201,-1.88188 -2.70399,-3.35222 -6.01494,-3.87109 -16.80161,-2.63291 -12.16517,1.39642 -16.01871,2.43265 -16.8591,4.53354 -0.78565,1.96383 -2.17242,2.00019 -9.22054,0.24178 z m -87.73075,-87.03457 c 1.96722,-0.95432 1.95931,-0.99664 -0.43345,-2.26808 -2.84479,-1.51158 -7.621,-1.69838 -9.382,-0.36694 -0.97673,0.73822 -0.79082,1.20336 0.90614,2.26808 2.51567,1.57826 6.10686,1.72618 8.90931,0.36694 z m 26.71932,-1.3419 c 2.12593,-1.33393 2.04778,-1.95523 -0.44275,-3.51784 -2.67988,-1.68132 -11.08998,-1.84565 -12.07463,-0.23593 -1.92935,3.15471 8.49135,6.27974 12.51738,3.75377 z m -31.70898,-38.34906 c -0.41176,-1.08004 -0.4696,-1.08004 -1.2191,0 -0.43277,0.62372 -0.43277,1.64435 0,2.26808 0.7495,1.08004 0.80734,1.08004 1.2191,0 0.23755,-0.62373 0.23755,-1.64436 0,-2.26808 z m -28.27994,116.78196 c -0.89686,-1.46621 2.61722,-3.53997 5.99841,-3.53997 4.29835,0 3.78261,2.25566 -0.8669,3.79113 -3.04104,1.00432 -4.40439,0.93762 -5.13151,-0.25116 z m 327.05263,-37.44271 c 0,-1.52447 2.8355,-2.56844 5.7357,-2.11174 1.7823,0.28064 2.5532,0.7873 2.3287,1.53041 -0.44,1.45794 -8.0644,2.00754 -8.0644,0.58133 z M 671.70689,750.92627 c -2.45541,-2.35111 -1.60642,-4.52819 1.86325,-4.77867 2.61757,-0.18899 2.84032,-0.0281 2.84032,2.05307 0,4.36098 -1.86635,5.44247 -4.70357,2.7256 z m 403.03681,-0.7935 c -1.2952,-0.81269 -0.6903,-5.52598 0.9953,-7.75476 4.7305,-6.25422 14.2753,-5.13061 12.3077,1.44886 -1.2456,4.16674 -10.0561,8.34302 -13.303,6.3059 z m 4.0736,-20.02764 c -0.8652,-1.41452 1.2318,-3.63772 3.2014,-3.39427 2.2227,0.27473 3.866,2.06482 3.0782,3.35313 -0.8279,1.35341 -5.4585,1.38375 -6.2796,0.0412 z m -428.48614,-4.99537 c -2.70639,-0.68235 -2.84032,-0.92275 -2.84032,-5.10434 0,-3.67532 0.32363,-4.49724 1.99787,-5.05909 5.25614,-1.76492 7.44094,0.0536 7.66335,6.37864 0.13427,3.85883 -0.0585,4.30151 -1.91489,4.3959 -1.13613,0.0577 -3.34366,-0.21727 -4.90601,-0.61111 z m 393.09334,-51.36659 c -1.4536,-2.37651 3.7902,-10.88233 6.5024,-10.54744 3.8415,0.47431 3.9851,2.18496 0.5505,6.56186 -3.365,4.28854 -5.9681,5.75953 -7.0529,3.98558 z m 6.2301,-16.90868 c -0.8556,-2.13866 0.7171,-5.09318 2.7109,-5.09318 1.9937,0 3.5664,2.95452 2.7108,5.09318 -0.4489,1.12204 -1.3819,1.71106 -2.7108,1.71106 -1.329,0 -2.262,-0.58902 -2.7109,-1.71106 z m -258.41227,-3.63513 c 0.41038,-1.81246 4.06217,-2.26398 6.40811,-0.79227 2.31184,1.45062 1.20601,2.25032 -3.11231,2.25032 -3.1691,0 -3.58431,-0.18356 -3.2958,-1.45805 z"
         id="path5347"
         inkscape:connector-curvature="0" />
      <path
         style="fill:#8f6e49"
         d="m 886.17475,811.21783 c -1.87357,-1.21286 -4.63712,-2.35664 -6.14128,-2.54176 -1.50417,-0.18512 -7.84755,0.22097 -14.09625,0.90243 -6.2487,0.68144 -12.75562,1.25129 -14.45981,1.26631 -1.70419,0.0151 -4.00089,0.45547 -5.10328,0.97875 -2.67954,1.27148 -6.96549,1.19875 -16.16296,-0.27427 -4.20953,-0.67413 -12.30117,-1.4337 -17.98181,-1.68792 -7.6964,-0.34443 -12.25675,-0.94035 -17.8947,-2.33844 -4.16132,-1.03191 -8.1753,-1.8762 -8.91963,-1.8762 -0.74434,0 -4.13757,-1.16644 -7.5401,-2.59209 -5.9447,-2.49056 -6.51415,-2.59209 -14.54175,-2.59209 -7.87233,0 -8.56571,-0.11621 -12.00577,-2.0112 -2.24024,-1.23416 -3.65076,-2.60142 -3.65076,-3.53888 0,-1.71715 3.64525,-4.17026 6.19706,-4.17026 4.89843,0 7.90676,-4.81425 4.6805,-7.49041 -0.83384,-0.69185 -1.53101,-1.87469 -1.54926,-2.62855 -0.0379,-1.58269 -3.7358,-4.7844 -5.53019,-4.78801 -0.66859,-10e-4 -4.00468,-0.87507 -7.41306,-1.94162 -3.40838,-1.06656 -7.50154,-1.9403 -9.09556,-1.94164 -1.9359,-0.002 -3.89382,-0.68618 -5.89513,-2.06087 l -2.99662,-2.05844 -1.07657,1.77661 c -0.59216,0.97714 -1.07657,1.99468 -1.07657,2.26121 0,0.83215 -5.56737,3.80013 -7.98904,4.25898 -1.85946,0.35231 -3.33918,-0.20931 -7.6062,-2.88649 l -5.2978,-3.3239 0.0964,-6.10589 c 0.0964,-5.91768 -0.0344,-6.25663 -4.00675,-10.99652 -2.25814,-2.68984 -4.39578,-6.02982 -4.75073,-7.42217 -0.60077,-2.35826 -0.40694,-2.62263 2.83412,-3.86238 4.36686,-1.67029 6.58885,-1.67918 9.91082,-0.0397 2.65854,1.31202 6.47903,1.75337 6.47903,0.74847 0,-1.12958 -3.88212,-2.69253 -6.68801,-2.69253 -1.6102,0 -5.38868,-1.03214 -8.45898,-2.31079 -3.05171,-1.27094 -7.28293,-2.47362 -9.40232,-2.67264 -2.71466,-0.25489 -5.32706,-1.24785 -8.8377,-3.3594 -7.24367,-4.35698 -7.47365,-4.80628 -3.80327,-7.42914 1.71176,-1.22309 4.29628,-3.8469 5.74398,-5.8307 2.47814,-3.39638 2.53839,-3.72034 1.03009,-5.55045 -1.74447,-2.11642 -2.12937,-4.6 -0.71335,-4.6 0.48888,0 2.56869,-0.7152 4.62163,-1.58934 l 3.7327,-1.58934 5.68374,3.04739 c 3.38325,1.81397 6.7424,4.38262 8.29958,6.3463 6.03112,7.60619 17.15381,13.24683 30.01959,15.22384 2.81037,0.43187 6.92074,1.35308 9.13413,2.04712 2.21304,0.69405 7.32561,1.50203 11.36127,1.79552 4.03532,0.2935 9.24671,0.89828 11.58059,1.34396 3.86249,0.73757 4.52592,0.68414 7.38931,-0.59513 1.73001,-0.773 4.57033,-1.40545 6.31136,-1.40545 2.72085,0 3.69379,-0.51801 6.92452,-3.6869 l 3.75921,-3.68689 -6.71279,-4.08938 c -5.8669,-3.57413 -7.21063,-4.08938 -10.66446,-4.08938 -2.17344,0 -5.85105,-0.4551 -8.17254,-1.01133 -3.93514,-0.94293 -4.5662,-0.92627 -9.33002,0.2463 -3.18391,0.78367 -5.24857,1.71433 -5.47889,2.46939 -0.96915,3.18021 -5.87791,3.71645 -13.3223,1.4554 -7.42649,-2.25567 -7.98698,-5.84529 -1.25388,-8.02986 4.16167,-1.35027 3.97542,-2.95473 -1.14507,-9.86066 -4.09282,-5.51992 -4.17923,-5.77784 -3.03863,-9.04451 1.41465,-4.05063 4.59581,-6.83108 7.49982,-6.55506 1.56923,0.14917 2.77215,1.43842 4.9332,5.28822 2.70364,4.81617 5.43414,7.58127 6.70144,6.78613 1.05969,-0.66476 5.64965,-11.8605 5.66652,-13.82115 0,-1.06923 0.933,-2.88689 2.0526,-4.03924 1.82607,-1.87882 1.91799,-4.07549 0.1687,-4.0522 -3.12951,0.0417 -5.60283,1.11756 -6.83983,2.97537 -2.2065,3.31315 -7.09667,4.90747 -13.55228,4.41819 -6.43772,-0.48794 -12.29669,1.13533 -16.46043,4.56052 -1.50761,1.24001 -4.32314,2.61352 -6.25696,3.05227 -1.93383,0.43875 -3.51615,1.16254 -3.51615,1.60844 0,0.4459 2.09151,1.71357 4.6478,2.81705 4.96281,2.1423 5.33119,2.87915 3.67658,7.35289 -1.09619,2.96413 -4.74316,5.60852 -7.7298,5.60515 -3.7358,-0.005 -8.49858,-2.36377 -10.80458,-5.35241 -2.47538,-3.20831 -2.27294,-3.97647 2.12112,-8.0464 1.60848,-1.48986 2.92467,-2.83963 2.92467,-2.99948 0,-0.15985 -1.37885,-0.649 -3.06411,-1.08698 -1.68525,-0.43798 -3.35777,-1.37684 -3.71686,-2.08634 -1.03594,-2.04758 6.16918,-7.93311 16.38848,-13.38736 5.00033,-2.66867 10.36664,-6.04012 11.9252,-7.49212 2.83275,-2.63882 2.83688,-2.63993 8.98368,-2.46881 19.14306,0.5329 31.30376,-0.0512 37.94012,-1.82238 8.27996,-2.20978 9.44742,-0.31911 2.29326,3.71421 -5.37698,3.03149 -5.75569,3.91841 -1.80748,4.2345 4.95111,0.39641 11.50484,-1.22659 18.35948,-4.54686 5.83178,-2.82462 7.87888,-3.3944 16.73585,-4.65844 5.5505,-0.7921 12.71499,-1.84705 15.92128,-2.34432 7.02747,-1.0899 13.15671,-1.15626 17.08392,-0.18499 4.47738,1.10746 17.80932,3.12206 23.58291,3.56368 5.64312,0.43166 10.52158,-0.51388 17.02333,-3.29949 2.71638,-1.16384 6.18226,-1.74625 13.94338,-2.34321 12.3986,-0.95364 16.40156,-0.56724 21.17329,2.04368 6.29036,3.44201 6.90628,3.50393 8.88108,0.89293 2.64511,-3.4974 5.40143,-4.35694 12.24952,-3.82012 3.1636,0.24799 6.8691,1.0023 8.23486,1.67624 1.36542,0.67395 4.6478,1.41154 7.29394,1.63912 2.64649,0.22757 6.51897,1.14699 8.606,2.04315 2.08703,0.89617 5.83315,1.87272 8.32472,2.17012 2.49121,0.29739 7.75734,1.83635 11.70246,3.4199 7.95496,3.19334 12.52976,4.11688 14.72628,2.97306 1.9149,-0.99717 19.7786,-1.58018 20.6706,-0.67463 1.1644,1.1819 -7.8868,7.03669 -11.6067,7.50803 -3.5409,0.44865 -4.2522,1.16977 -2.0034,2.03093 1.8894,0.72345 4.8437,3.54219 4.8437,4.62144 0,0.68113 -0.9378,0.79713 -3.8732,0.47912 -9.43154,-1.02183 -12.68982,5e-4 -16.29306,5.11224 -1.70764,2.42284 -3.57605,3.87959 -6.36025,4.95931 -2.68574,1.04146 -3.41217,1.5929 -2.2788,1.72988 2.85272,0.34479 25.24991,-4.78387 30.17381,-6.90936 3.2652,-1.4095 5.8951,-2.02215 8.6814,-2.02215 4.852,0 6.4756,-0.90421 6.4756,-3.60634 0,-2.99231 3.4824,-5.46598 7.6947,-5.46598 4.3693,0 5.5123,0.91919 6.5134,5.23829 l 0.8136,3.51001 7.7236,0 c 11.2445,0 12.6413,1.05601 7.5242,5.68867 -2.1459,1.94294 -2.5352,2.76512 -1.7031,3.59896 1.689,1.69333 6.8577,1.62805 14.0508,-0.17747 7.673,-1.92598 9.6016,-2.04262 10.4637,-0.63287 1.8812,3.0758 -1.2745,5.79249 -7.5587,6.50678 -6.93,0.78776 -11.407,2.68312 -13.47,5.70294 -1.0531,1.54144 -3.6235,4.20721 -5.7123,5.92393 -4.2068,3.45779 -4.3169,4.64599 -0.9364,10.08996 l 1.8653,3.00372 -4.0804,3.72159 c -3.9014,3.55793 -4.0808,3.94507 -4.0808,8.80389 l 0,5.08231 -8.3684,5.36499 c -4.6024,2.95074 -9.3831,6.43694 -10.6235,7.7471 -1.2405,1.31015 -4.214,3.10422 -6.6078,3.98681 -9.6316,3.55091 -15.4589,11.78783 -12.5821,17.78498 1.6901,3.52376 3.5509,4.85728 10.8115,7.7483 11.627,4.62961 13.1005,6.47254 5.4224,6.78165 -4.7349,0.19073 -4.9074,0.26847 -4.9422,2.23136 -0.065,3.72064 -4.7814,5.32484 -9.3204,3.17095 -2.5965,-1.23231 -7.3452,-1.23907 -12.85989,-0.0173 -5.41726,1.19912 -25.69266,2.91376 -34.45531,2.91376 -9.44087,0 -16.9555,1.59181 -21.3079,4.51357 -5.79942,3.8933 -10.56874,4.80682 -17.03813,3.26357 -3.57329,-0.85234 -24.74624,0.29516 -29.77619,1.61375 -5.21689,1.36761 -6.0442,1.26496 -9.89498,-1.2277 z m -73.96398,-58.04195 c 0.77154,-0.78322 -4.07422,-1.60675 -5.71369,-0.97103 -0.88377,0.34276 -0.83109,0.61336 0.19969,1.02311 1.88425,0.74908 4.75142,0.722 5.514,-0.0521 z M 788.99039,735.3745 c 0,-0.15717 -0.46478,-0.46599 -1.03285,-0.68627 -0.56806,-0.22027 -1.03284,-0.0917 -1.03284,0.28577 0,0.37744 0.46478,0.68627 1.03284,0.68627 0.56807,0 1.03285,-0.12859 1.03285,-0.28577 z m 17.98111,-6.35647 c 2.50499,-2.43014 3.12194,-4.95538 1.31688,-5.39005 -3.98815,-0.96013 -9.61268,3.82825 -6.90318,5.87665 1.82503,1.37972 3.84355,1.20391 5.5863,-0.4866 z M 950.95607,675.8782 c 0.18935,-0.6248 -0.40556,-1.31629 -1.32066,-1.53665 -1.88012,-0.45262 -5.99084,1.54798 -5.08022,2.47239 1.00771,1.02303 6.03078,0.28872 6.40088,-0.93574 z m 0,-8.70912 c 0.36494,-1.60023 -2.83275,-3.01619 -5.41038,-2.39566 -2.09702,0.50492 -2.05811,1.46926 0.1205,2.97942 2.21476,1.53559 4.87399,1.24217 5.29022,-0.58376 z m 124.57473,80.51403 c -1.9711,-4.92728 7.5679,-10.77223 11.0049,-6.7431 1.5816,1.85448 -0.3515,5.97597 -3.4401,7.33326 -3.4917,1.53442 -6.8188,1.27486 -7.5648,-0.59016 z m -428.03996,-27.8994 c 0,-1.40288 0.41762,-1.67299 2.3239,-1.50312 1.52517,0.13591 2.3239,0.65244 2.3239,1.50312 0,0.85068 -0.79873,1.3672 -2.3239,1.50312 -1.90628,0.16987 -2.3239,-0.10025 -2.3239,-1.50312 z m 39.93007,-18.78127 c -2.11974,-1.3301 -2.18412,-2.52449 -0.19279,-3.56211 1.25387,-0.65287 1.73139,-0.50735 2.69675,0.82194 0.7674,1.05713 0.83385,1.99552 0.1928,2.71572 -0.91476,1.02544 -1.0986,1.0271 -2.69676,0.0244 z M 1026.6535,674.8424 c -2.4716,-2.17785 -2.7219,-3.38207 -0.9354,-4.50283 3.9179,-2.45824 9.4402,0.70477 7.4451,4.26435 -1.3579,2.42254 -3.9241,2.51655 -6.5097,0.23848 z m -69.30964,-23.99378 c 0,-0.31277 0.63554,-0.89959 1.41224,-1.30403 1.06693,-0.55552 1.69627,-0.52073 2.57316,0.14228 0.63864,0.48271 0.85519,1.06952 0.4813,1.30404 -1.0022,0.62888 -4.4667,0.51853 -4.4667,-0.14229 z"
         id="path5345"
         inkscape:connector-curvature="0" />
      <path
         style="fill:#67502e"
         d="m 829.7877,809.71902 c -3.06995,-0.59208 -9.77173,-1.04425 -16.52549,-1.11497 -10.18556,-0.10671 -12.1094,-0.32453 -18.59118,-2.10506 -3.97645,-1.09235 -8.54782,-2.18018 -10.15836,-2.41743 -3.4886,-0.51386 -7.9164,-3.32072 -7.9164,-5.01848 0,-0.6656 0.55291,-1.76584 1.22908,-2.44497 0.98396,-0.9886 0.83901,-1.95459 -0.72712,-4.84565 -1.72141,-3.1775 -1.79061,-3.8984 -0.57598,-6.00627 1.31756,-2.28592 1.25628,-2.46251 -1.34236,-3.86498 -1.49762,-0.80828 -4.46429,-1.66533 -6.59229,-1.90458 -4.79687,-0.53931 -7.07773,-1.74729 -8.53714,-4.52164 -0.91303,-1.73541 -0.80458,-2.54615 0.56187,-4.20401 1.57543,-1.91137 1.56785,-2.35275 -0.11017,-6.3579 -1.95139,-4.6625 -3.88384,-6.57201 -6.65083,-6.57201 -2.24953,0 -7.20924,-2.42239 -7.20924,-3.5209 0,-1.18846 9.60131,-1.77481 15.38936,-0.93982 2.6131,0.37699 11.258,0.75038 19.21089,0.82977 10.67685,0.10658 15.46408,0.41983 18.29785,1.19739 5.06541,1.38974 29.87638,1.73641 34.11895,0.47673 1.56235,-0.46381 2.83206,-1.0152 2.82173,-1.2253 0,-0.21009 -1.75308,-1.28275 -3.87316,-2.38366 -2.94429,-1.52888 -5.22998,-2.09001 -9.67706,-2.37573 -3.2025,-0.20575 -7.24642,-0.83596 -8.98608,-1.40047 -4.88569,-1.58507 -15.1315,-1.31474 -25.10704,0.6624 -7.30152,1.44716 -9.34104,1.60719 -14.25496,1.11851 -3.15396,-0.31365 -7.12869,-0.37908 -8.83288,-0.1454 -7.43337,1.01929 -11.34647,0.63005 -17.61893,-1.75259 -3.37499,-1.28196 -8.42249,-2.90091 -11.21634,-3.59767 -2.79384,-0.69676 -6.27968,-1.7967 -7.74632,-2.44432 -1.46664,-0.64763 -3.82841,-1.40075 -5.24857,-1.67362 -1.42016,-0.27286 -4.44122,-1.32795 -6.71348,-2.34463 -2.55147,-1.14157 -6.10617,-2.01047 -9.29559,-2.27204 -5.7402,-0.47077 -10.18693,-1.66343 -13.68517,-3.67031 -3.08889,-1.77208 -2.93121,-3.30343 0.51642,-5.01694 2.54905,-1.26685 3.6146,-1.36824 10.39006,-0.98855 4.15203,0.2327 11.12372,1.24357 15.49265,2.24638 4.36858,1.00281 10.41863,2.18995 13.44418,2.63807 4.04909,0.59971 6.50278,1.46758 9.29559,3.28792 l 3.79432,2.47313 12.91054,0.16451 c 7.1008,0.0905 14.21709,-0.0736 15.81421,-0.3647 2.38243,-0.43421 3.40219,-0.22963 5.68064,1.13962 5.98705,3.59802 21.27279,5.57944 26.4914,3.43401 1.44288,-0.59306 2.62308,-1.48815 2.62308,-1.98909 0,-2.28631 3.00006,-2.94746 13.37429,-2.94746 12.40376,0 13.65074,-0.53379 11.01183,-4.71366 -1.90319,-3.01455 -2.03849,-2.86382 5.76189,-6.41826 l 2.38655,-1.08755 -3.78984,-2.41343 -3.7895,-2.41344 -4.67121,0.82057 c -3.69276,0.64866 -5.75638,0.65725 -9.85092,0.0409 -3.2779,-0.49339 -7.94842,-0.61681 -12.72187,-0.33618 -8.63664,0.5078 -10.35805,-0.12848 -11.53652,-4.26423 -0.37905,-1.32964 -1.96929,-3.10349 -3.73304,-4.16365 -1.69008,-1.01589 -3.36604,-2.82827 -3.72478,-4.02752 -0.79701,-2.66602 1.13338,-7.5018 4.21331,-10.55299 1.25904,-1.24744 2.61551,-3.36383 3.01419,-4.70307 0.45789,-1.53696 1.65978,-2.81916 3.25896,-3.47665 3.31818,-1.3641 3.21318,-2.70673 -0.27887,-3.5393 -3.70997,-0.88503 -7.51737,0.16987 -7.51737,2.08289 0,0.84954 -2.25332,2.79939 -5.68064,4.91572 l -5.68064,3.50767 -0.0344,4.3325 c -0.0344,5.01764 -2.38243,8.89462 -6.7004,11.02567 -5.65413,2.79057 -9.07525,1.54298 -14.37477,-5.24251 -3.92136,-5.02092 -4.02947,-10.47018 -0.30985,-15.56833 1.43324,-1.96441 2.93293,-4.50501 3.33229,-5.64579 1.0628,-3.036 7.94257,-6.83832 17.77765,-9.82505 4.74213,-1.44019 11.66149,-3.92421 15.37628,-5.52003 8.02554,-3.44775 15.69165,-5.22411 26.23491,-6.07906 7.55629,-0.61274 7.90367,-0.57819 14.15753,1.40795 6.27694,1.99347 6.56854,2.02201 13.94339,1.36293 4.14273,-0.37025 11.08826,-0.51685 15.43481,-0.32579 7.60551,0.33432 8.43351,0.22241 22.00404,-2.97384 19.50903,-4.59487 24.83403,-4.45088 24.83403,0.67149 0,3.00005 -0.84865,2.48371 12.93843,7.87325 5.21483,2.03858 6.10204,2.63241 5.084,3.40212 -0.67858,0.51286 -2.22853,0.93248 -3.44453,0.93248 -1.21635,0 -4.69118,1.04778 -7.72223,2.3284 -4.92942,2.08284 -5.43758,2.50999 -4.81821,4.05014 0.38043,0.94696 0.94746,2.69886 1.25972,3.89312 0.51952,1.98536 0.81905,2.13987 3.4979,1.80372 1.62156,-0.20346 4.58479,0.0662 6.63567,0.60384 3.09337,0.81089 4.16752,0.83309 6.49865,0.13427 3.16429,-0.94847 4.1448,-3.14755 1.92006,-4.30595 -1.91524,-0.99735 -7.70088,-1.46389 -8.47001,-0.68302 -0.32362,0.32987 -1.49314,0.59977 -2.59553,0.59977 -2.49329,0 -2.68608,-1.93166 -0.19624,-1.977 0.99394,-0.0181 3.84906,-0.19592 6.34475,-0.39513 5.38146,-0.42961 17.56006,1.44023 18.40768,2.8263 0.3133,0.51111 -0.0344,1.62718 -0.75432,2.48013 -1.20808,1.4163 -1.01838,1.72958 2.18653,3.61163 1.93039,1.13345 5.14322,2.70912 7.13971,3.50151 4.80444,1.90678 5.755,2.70964 7.18755,6.07018 l 1.2074,2.83316 4.3159,-0.37538 c 2.37382,-0.20646 8.03415,-0.69384 12.57866,-1.08306 6.43358,-0.55101 9.06286,-1.10768 11.8777,-2.5146 5.56393,-2.78122 8.09715,-3.43958 13.63005,-3.54245 3.8918,-0.0724 5.3436,0.17434 6.1162,1.03915 1.4256,1.59589 4.1093,1.41221 8.7709,-0.60034 3.6759,-1.58696 10.8472,-3.20612 21.5757,-4.87138 2.756,-0.42778 5.0289,-0.42252 6.8278,0.0158 2.5346,0.61765 2.6675,0.86406 2.2137,4.10953 -0.2651,1.89887 -1.1302,4.29922 -1.9217,5.33411 -2.1845,2.85606 -1.7738,3.96071 2.1758,5.85071 1.9882,0.95148 3.615,2.19318 3.615,2.75934 0,0.56617 -1.4137,2.47084 -3.1416,4.23261 -4.0632,4.14322 -4.6468,6.18754 -2.631,9.21466 2.2936,3.44404 2.0784,4.68113 -1.4074,8.08941 -4.8888,4.77989 -6.468,7.67805 -5.713,10.48284 0.66,2.45097 0.5033,2.60342 -9.2268,8.98315 -5.4441,3.56945 -9.8984,6.77869 -9.8984,7.13166 0,0.35297 -1.7999,1.21793 -4.0002,1.92213 -3.6094,1.1554 -13.2651,8.37837 -20.1184,15.05009 l -1.91245,1.86173 3.71995,2.58336 c 2.046,1.42086 3.712,3.09284 3.702,3.71553 0,0.62271 -2.8258,3.13701 -6.25793,5.58738 -4.32452,3.08761 -6.02699,4.77844 -5.54568,5.5082 1.71417,2.59883 1.60091,3.24629 -0.73332,4.19035 -4.06527,1.64429 -14.67257,3.01886 -23.29578,3.01886 -9.20401,0 -19.10416,0.98439 -23.00039,2.28698 -1.43187,0.47858 -4.46223,1.92246 -6.73449,3.20857 -4.02326,2.27724 -4.29284,2.3279 -10.3033,1.93684 -3.39426,-0.22087 -6.41533,-0.43913 -6.71348,-0.48505 -2.1101,-0.3252 -21.20531,1.0827 -25.65514,1.89156 -5.44859,0.99046 -5.52089,0.98484 -9.71217,-0.7554 -5.57219,-2.31347 -9.94491,-2.59775 -19.91494,-1.29471 -5.89272,0.7702 -10.49025,0.95819 -16.02904,0.65548 -7.03642,-0.38458 -7.94911,-0.29758 -9.7139,0.9258 -2.26502,1.57047 -5.26784,1.62786 -12.47227,0.23837 z m -7.91743,-31.67583 c 3.33849,-1.46706 2.61172,-3.69829 -1.37816,-4.23075 -4.84748,-0.64692 -16.85635,-0.63135 -17.50084,0.0227 -1.08862,1.1052 0.68064,2.66102 3.4132,3.00117 1.49935,0.18663 4.58548,0.74591 6.85774,1.24273 5.41106,1.18316 5.83832,1.18137 8.60806,-0.0359 z m 23.88967,-25.92789 c 1.31171,-0.78285 1.14542,-0.90249 -1.25491,-0.90249 -1.7517,0 -3.19183,0.4981 -3.9248,1.35737 -1.0535,1.23513 -0.94058,1.3164 1.2549,0.90248 1.32686,-0.25018 3.09302,-0.86099 3.92481,-1.35736 z m 64.60848,-8.68449 c 4.81856,-1.46355 8.19252,-3.52179 9.20195,-5.61359 0.96157,-1.99335 -3.09957,-4.30469 -6.62879,-3.77244 -2.59623,0.39156 -19.18507,7.11585 -20.26886,8.2159 -2.52014,2.55855 10.3274,3.4081 17.6957,1.17013 z m -39.63949,-8.37797 c 3.03277,-1.56149 2.03504,-2.86423 -3.99883,-5.22256 -2.28327,-0.89225 -5.367,-2.16466 -6.8536,-2.82757 -1.48799,-0.66366 -3.459,-1.02314 -4.38615,-0.79995 -1.36714,0.32915 -0.78599,1.00726 3.09062,3.60762 2.62583,1.76124 4.77414,3.63769 4.77414,4.16987 0,0.86844 2.57281,2.25752 4.27529,2.30833 0.36287,0.0108 1.75721,-0.54524 3.09853,-1.23574 z m 84.83431,-8.40973 c 3.28065,-0.78255 4.44157,-1.89661 2.4709,-2.37109 -3.28891,-0.79185 -14.92114,2.27175 -13.62423,3.58828 0.53949,0.54763 6.46663,-0.0992 11.15333,-1.21719 z M 840.91349,715.52438 c 4.34965,-2.24949 4.84782,-3.19294 1.68595,-3.19294 -4.9129,0 -9.94801,3.20087 -7.47538,4.75217 1.11822,0.70149 1.74447,0.5328 5.78943,-1.55923 z m 16.69385,-3.82492 c 3.99332,-0.95261 3.25449,-2.06984 -1.21531,-1.83722 -2.70089,0.14055 -3.96784,0.54262 -4.20712,1.33516 -0.38835,1.28585 1.43049,1.45427 5.42243,0.50206 z m 85.33008,-2.36362 c 2.01748,-0.20298 4.74901,-0.88054 6.07002,-1.5057 2.19582,-1.0391 2.29842,-1.33288 1.19878,-3.42349 -1.29725,-2.46642 -4.47427,-4.66144 -6.2122,-4.29213 -0.59148,0.12567 -2.12904,1.54075 -3.41665,3.1446 -1.61502,2.01178 -3.5547,3.28806 -6.25421,4.11551 -3.27412,1.00351 -3.70516,1.35661 -2.63995,2.16194 0.87,0.65784 2.27226,0.83683 4.42952,0.56542 1.73587,-0.2184 4.8072,-0.56317 6.82469,-0.76615 z m -59.60677,-0.83118 c 5.02168,-0.40514 10.5412,-1.19432 12.2657,-1.75374 2.977,-0.96599 3.38084,-0.93314 8.02657,0.65332 4.78172,1.6329 5.01101,1.64822 10.19864,0.68163 2.91882,-0.54385 5.3071,-1.23747 5.3071,-1.54137 0,-0.87962 -7.98113,-2.64361 -11.64049,-2.57276 -1.83468,0.0355 -4.49769,0.27421 -5.91785,0.5304 -1.54204,0.27818 -4.01811,0.0961 -6.14749,-0.45198 -2.78558,-0.71709 -4.39268,-0.76222 -7.34971,-0.20637 -2.08152,0.39126 -5.95606,0.71139 -8.61047,0.71139 -4.23913,0 -5.35529,0.31992 -9.17578,2.63004 l -4.34965,2.63003 4.13137,-0.28698 c 2.27226,-0.15783 8.24003,-0.61846 13.26206,-1.0236 z m 134.81565,-0.93101 c 1.3537,-1.02341 0.525,-1.72243 -2.0416,-1.72243 -2.4368,0 -3.6173,1.29569 -1.8284,2.00659 1.9403,0.77114 2.5315,0.72774 3.87,-0.28416 z M 886.51835,692.52174 c 1.24561,-0.78147 1.3661,-1.31579 0.52055,-2.30691 -2.16759,-2.54108 -9.51731,-0.42726 -7.87164,2.26384 0.82455,1.34803 5.22997,1.37385 7.35109,0.0431 z m 6.5675,-17.1936 c 0.25477,-0.84475 -1.41775,-1.18657 -8.98814,-1.83563 -9.47497,-0.81241 -12.67953,-0.55656 -10.46133,0.83526 3.564,2.23613 18.83769,3.02172 19.44947,1.00037 z M 755.61784,798.14231 c -4.29009,-1.48171 -3.50237,-3.77037 1.38677,-4.02865 2.81931,-0.14905 4.2109,0.18382 6.13164,1.46664 1.53274,1.02369 2.11389,1.88668 1.5169,2.25288 -1.88528,1.1567 -6.15781,1.30287 -9.03531,0.30913 z m 247.61286,-3.07621 c -0.8748,-1.43032 1.4356,-4.31138 3.9293,-4.90018 2.4788,-0.58523 9.3682,-0.2011 8.8263,0.49196 -0.1756,0.22458 -1.404,1.50188 -2.7291,2.83843 -2.0251,2.04252 -2.975,2.43008 -5.9547,2.43008 -1.9941,0 -3.7757,-0.37646 -4.0718,-0.86029 z M 742.4515,771.64707 c -3.72616,-1.20053 -7.3146,-2.59099 -7.97459,-3.08991 -1.40088,-1.05907 -5.35873,-8.7112 -5.37801,-10.39844 -0.0551,-4.73375 16.23216,2.49366 25.5701,11.347 2.10666,1.99719 2.33595,2.61026 1.27625,3.41133 -1.9896,1.50414 -6.07863,1.1193 -13.49375,-1.26998 z m -32.70396,-0.32787 c -4.29353,-1.64242 -4.9332,-3.44235 -2.93912,-8.27057 2.28086,-5.52232 2.10975,-6.21798 -2.3208,-9.4297 -5.30951,-3.84898 -7.02575,-6.51976 -5.52124,-8.59153 1.58025,-2.176 4.91875,-2.04414 10.87068,0.42933 5.12566,2.13017 7.88713,4.66536 7.88713,7.24097 0,0.85209 0.61214,2.83494 1.36026,4.40634 0.95848,2.01268 1.1406,4.44313 0.61626,8.22361 -1.02802,7.40909 -3.05618,8.63008 -9.95317,5.99155 z m 17.40927,-18.0764 c -2.80693,-1.76105 -3.70791,-4.15363 -2.22061,-5.89714 1.68594,-1.97648 3.32506,-1.35095 5.64035,2.15226 1.83296,2.77379 1.86497,3.12703 0.36873,4.06579 -1.49625,0.93876 -1.82538,0.91088 -3.78847,-0.32091 z m 350.36939,-6.24359 c -0.9939,-1.6255 0.5471,-4.13432 3.2135,-5.23039 3.1598,-1.29898 4.6767,-0.74561 4.6767,1.70597 0,3.1786 -6.3633,6.02098 -7.8902,3.52442 z M 810.65772,732.46133 c 2.85478,-5.29045 6.01459,-6.57757 9.76485,-3.97753 2.74702,1.90439 1.58541,3.43784 -4.07457,5.37927 -7.20856,2.47246 -7.71328,2.34805 -5.69028,-1.40174 z m -129.28238,-3.11929 c -3.63492,-2.65533 -2.32252,-5.28766 2.18859,-4.38939 2.79832,0.55725 6.29794,3.43324 5.58872,4.59276 -0.79357,1.29797 -5.90511,1.16432 -7.77731,-0.20337 z m 10.26956,-9.28623 c -2.37244,-0.86699 -2.30014,-2.3292 0.15492,-3.15398 3.46416,-1.1632 10.43035,1.1659 10.43035,3.4873 0,0.63303 -8.69104,0.35939 -10.58665,-0.33332 z m 46.24935,-2.77048 c -2.15107,-0.98682 -1.53791,-3.00982 0.91234,-3.00982 1.7703,0 4.90532,2.54682 4.11829,3.34573 -0.78737,0.79927 -2.85753,0.66103 -5.03063,-0.33591 z m 2.12043,-16.16716 c -1.43118,-1.17752 -3.32025,-3.2188 -4.19748,-4.53616 -1.4236,-2.13756 -1.42877,-2.64531 -0.0482,-4.72036 0.86415,-1.29773 2.12559,-2.21275 2.85409,-2.07079 2.37967,0.46355 5.35047,5.30836 5.77532,9.41812 0.48234,4.66227 -0.51195,5.09511 -4.38511,1.90919 z m 231.412,-8.27444 c -1.49693,-0.7387 -2.72154,-1.74908 -2.72154,-2.24529 0,-1.36846 3.99882,-2.4225 7.516,-1.98115 6.3964,0.80266 7.76457,2.99082 2.86373,4.58084 -3.92584,1.27379 -4.40404,1.25166 -7.65819,-0.3544 z m -263.66736,-6.12524 c -1.05522,-1.72548 4.42436,-5.89371 15.69543,-11.93905 9.78482,-5.24826 11.36679,-5.86553 15.02994,-5.86553 5.70921,0 11.25765,1.5558 11.25765,3.15663 0,1.89309 -8.44418,6.08931 -18.52818,9.20709 -4.86297,1.50368 -10.36871,3.56533 -12.23472,4.58145 -3.83976,2.09087 -10.17041,2.57577 -11.22012,0.85941 z m 264.04435,-4.79086 c -0.8521,-0.30544 -3.4979,-0.75678 -5.87929,-1.00298 -5.56703,-0.57549 -7.77731,-2.05254 -4.98726,-3.33255 1.08105,-0.49605 3.15499,-0.90354 4.60855,-0.90553 1.4539,-0.002 4.44019,-0.31668 6.63636,-0.69932 2.19652,-0.38264 4.99001,-0.53883 6.20774,-0.34707 2.53322,0.39891 5.80802,3.51363 5.80802,5.52415 0,1.20879 -0.59595,1.3559 -5.42243,1.33836 -2.98216,-0.0108 -6.1196,-0.26961 -6.97169,-0.57506 z"
         id="path5343"
         inkscape:connector-curvature="0" />
      <path
         style="fill:#4c341c"
         d="m 824.82214,805.795 -7.0316,-2.4152 -1.74757,1.4242 c -4.06734,3.31414 -11.7276,3.39543 -19.82268,0.21039 -2.55629,-1.00577 -6.12614,-2.02271 -7.93327,-2.25985 -8.36328,-1.09755 -5.13048,-4.03232 3.65386,-3.31684 2.63753,0.21493 8.16084,0.56506 12.27328,0.77828 6.50588,0.33727 7.56729,0.24072 8.16875,-0.74298 1.80335,-2.94827 -5.48784,-5.10808 -14.28181,-4.2307 -3.13158,0.31241 -6.23872,0.30057 -7.22267,-0.0274 -2.92605,-0.9756 -4.98657,-2.56304 -4.98657,-3.84137 0,-1.89836 6.11099,-2.29227 16.28897,-1.04997 4.78895,0.58454 9.1627,0.88609 9.71975,0.67008 0.55704,-0.21601 5.50677,-0.47312 10.99943,-0.57136 9.906,-0.17713 10.02478,-0.16114 14.77242,2.01483 2.63237,1.2064 5.86035,2.19347 7.17344,2.19347 3.73029,0 8.18081,-3.08087 8.18081,-5.66305 0,-1.19925 1.02768,-3.3007 2.28361,-4.66987 1.93452,-2.10892 2.07292,-2.64851 0.90615,-3.53049 -0.75742,-0.57262 -2.14625,-1.04111 -3.08648,-1.04111 -3.33092,0 -6.2308,-2.01598 -8.01865,-5.57436 -0.99497,-1.98059 -2.6792,-3.88858 -3.74991,-4.24802 -1.32376,-0.44454 -4.7948,-0.40546 -10.88996,0.12263 -4.92046,0.42633 -14.45085,0.84164 -21.17879,0.9229 -9.19541,0.11107 -12.46092,0.37427 -13.15292,1.06018 -1.31515,1.30357 -1.27418,1.39134 2.12731,4.54103 4.17751,3.86794 4.08662,5.1197 -0.37113,5.1197 -3.95338,0 -5.0327,-0.63562 -6.74413,-3.97179 -0.66342,-1.29346 -2.0946,-2.85606 -3.18012,-3.47245 -1.89355,-1.07514 -2.05983,-1.03218 -4.08868,1.05567 -1.16298,1.19703 -2.11664,2.37548 -2.11871,2.61877 0,1.22934 -4.78688,1.16222 -9.89705,-0.13911 -6.40432,-1.63086 -7.47503,-2.94827 -5.94711,-7.3168 0.65379,-1.86936 0.55016,-3.55768 -0.33395,-5.45677 -1.64945,-3.54144 -0.21001,-6.48125 3.45623,-7.05858 1.41225,-0.22239 5.53295,-0.25502 9.15685,-0.0725 5.03305,0.25349 7.3177,0.71655 9.67499,1.9612 2.1941,1.15829 4.89671,1.76118 9.34758,2.08528 9.00777,0.65595 17.65817,0.54649 21.01388,-0.26587 1.59919,-0.38711 4.97831,-0.70385 7.50877,-0.70385 5.47855,0 14.80478,-2.25508 21.03352,-5.08598 5.25889,-2.39028 6.98615,-2.49384 12.4461,-0.74622 6.65943,2.13158 9.38442,1.61378 10.85519,-2.06281 0.84383,-2.1097 1.29415,-2.22511 12.05741,-3.09015 13.05686,-1.04938 21.68592,-2.00084 25.11462,-2.76923 5.8965,-1.32144 12.40961,-4.3337 16.12096,-7.45563 3.42732,-2.88333 4.72526,-3.38664 16.16607,-6.26856 12.6148,-3.17776 13.88761,-3.2478 16.57335,-0.91208 1.77373,1.54253 4.64848,1.46092 11.58162,-0.32879 7.51875,-1.94096 14.89635,-5.44751 16.88905,-8.02731 6.38745,-8.26974 22.06565,-12.01991 23.94715,-5.72802 0.4228,1.41499 1.2801,2.29737 2.2316,2.29737 0.8494,0 4.7515,0.48563 8.6711,1.0792 5.7085,0.86444 7.588,0.92419 9.4464,0.30024 2.716,-0.91202 5.9289,-4.1692 5.9289,-6.01072 0,-2.12847 1.7771,-3.56383 6.6157,-5.34283 5.2031,-1.91311 8.0493,-2.12477 9.8874,-0.73524 1.0273,0.77682 0.5443,1.76172 -2.5894,5.27739 l -3.8525,4.32234 2.1993,2.84022 c 2.8906,3.73288 2.7921,4.55057 -1.0036,8.34889 -4.403,4.40609 -7.6038,6.41537 -12.3655,7.76253 -2.2306,0.63111 -4.0508,1.3219 -4.045,1.53507 0,0.21318 1.8646,0.87627 4.1314,1.47352 2.2664,0.59725 4.1207,1.40152 4.1207,1.78726 0,1.29475 -13.0221,10.08495 -15.2434,10.28946 -1.5775,0.14524 -2.6561,-0.35644 -3.8312,-1.78207 -3.0537,-3.70531 -8.5306,-2.00765 -11.9086,3.69156 -3.069,5.17724 -6.8595,9.06725 -9.31182,9.55554 -1.13991,0.22704 -4.55518,0.2182 -7.58933,-0.0197 -5.1625,-0.40469 -5.65895,-0.31884 -7.73565,1.33765 -4.54142,3.62237 -1.95759,5.48022 5.3064,3.8153 11.1344,-2.55207 12.1156,-2.56148 10.3274,-0.0991 -2.10424,2.8979 -6.77993,5.69715 -11.76202,7.04184 -3.17496,0.85692 -5.05818,1.76914 -5.05818,2.45008 0,0.5967 2.44027,2.09174 5.42243,3.32233 10.01961,4.13443 6.67079,7.09762 -8.02106,7.09762 -7.53391,0 -11.49968,0.66507 -13.13639,2.20309 -1.29347,1.21549 -0.91992,1.55653 3.35984,3.06571 2.28293,0.80495 3.99228,1.76165 3.7988,2.12596 -0.1928,0.36434 -5.43379,1.1381 -11.64463,1.71951 -11.55648,1.08179 -15.50676,1.97878 -20.71057,4.70262 -2.77869,1.45431 -4.06424,1.58018 -20.5226,2.00945 -9.65708,0.25187 -19.47736,0.75646 -21.82295,1.1213 -3.40666,0.52988 -4.90015,0.45722 -7.4227,-0.36126 -4.61612,-1.49777 -5.01755,-2.34532 -1.90525,-4.02497 4.41747,-2.38391 3.12401,-3.48909 -4.08352,-3.48909 -5.84865,0 -10.72711,1.59826 -10.72711,3.51442 0,3.41327 -13.21558,5.31677 -23.5416,3.39076 -5.78289,-1.07861 -8.98298,-0.76445 -11.48591,1.12761 -2.15141,1.62647 -6.21014,1.21448 -13.8339,-1.40429 z m 91.89173,-46.50921 c 2.46436,-0.90606 4.48047,-2.04933 4.48047,-2.54061 0,-2.27197 -13.04137,-1.29288 -17.65232,1.32526 -5.22516,2.96689 5.6734,3.97248 13.17185,1.21535 z m -92.72696,28.50377 c -16.13267,-2.96373 -16.39157,-4.42317 -0.82869,-4.67093 9.30317,-0.14818 11.22254,0.006 14.16889,1.14402 3.91104,1.50968 3.63148,2.14442 -1.67079,3.79098 -3.72719,1.15752 -3.95958,1.15227 -11.66941,-0.26407 z M 710.67676,767.70317 c 0.46719,-1.40758 2.30014,-1.49371 2.71948,-0.12777 0.21689,0.70933 -0.2892,1.13404 -1.35268,1.13404 -0.99222,0 -1.56166,-0.41917 -1.3668,-1.00626 z m 29.76999,0.16211 c -1.66391,-0.51932 -2.70226,-1.45948 -2.91985,-2.64361 -0.40866,-2.2238 1.35578,-2.06538 4.26977,0.38335 2.66612,2.24039 2.02507,3.31367 -1.34992,2.26026 z m -36.0848,-17.90802 c -3.90139,-2.44768 -1.68422,-4.8648 3.01487,-3.28693 1.55857,0.52334 2.11424,1.2383 1.88839,2.43001 -0.41762,2.20167 -2.24988,2.52189 -4.90326,0.85692 z m 70.411,-1.65105 c -1.85498,-0.51003 -3.648,-1.3776 -3.98471,-1.92792 -1.01666,-1.66277 0.52125,-4.15749 3.25622,-5.28193 2.45024,-1.0072 2.77387,-0.98012 6.43909,0.53858 2.12249,0.87951 5.60214,1.9589 7.73221,2.39863 2.13041,0.43973 3.87316,1.18265 3.87316,1.65093 0,0.88926 -5.53053,2.5026 -10.84486,3.16363 -1.77855,0.22123 -4.53521,-0.01 -6.47111,-0.54192 z m -19.88361,-0.46435 c -3.2748,-0.76007 -6.17984,-2.42772 -6.17984,-3.54762 0,-0.48702 1.12752,-1.20786 2.50602,-1.60187 5.00998,-1.43222 13.08337,1.44938 10.9774,3.91818 -1.29415,1.517 -4.06217,1.98366 -7.30358,1.23131 z m 325.36286,-3.10928 c 0,-0.35642 0.4923,-0.64803 1.0938,-0.64803 0.6015,0 0.8067,0.29161 0.4555,0.64803 -0.3512,0.35641 -0.8432,0.64802 -1.0938,0.64802 -0.2513,0 -0.4555,-0.29161 -0.4555,-0.64802 z m -218.54482,-1.62331 c -2.25538,-2.15982 -0.46168,-3.56088 4.55897,-3.56088 2.27467,0 5.1501,-0.63433 7.49294,-1.65304 3.26378,-1.41907 4.72216,-1.62545 10.30227,-1.45805 3.84734,0.11541 6.66493,0.50872 6.90421,0.96372 0.22378,0.4228 -2.52943,1.94763 -6.11512,3.38851 -5.21517,2.09571 -7.48846,2.62251 -11.36438,2.63339 -2.66473,0.008 -5.1322,0.30522 -5.48336,0.66163 -1.17503,1.19285 -4.58238,0.66496 -6.29553,-0.97528 z m -18.6528,-1.32074 c -0.77911,-1.2742 0.14459,-1.85924 2.1638,-1.37269 0.90787,0.21856 1.31791,0.80224 0.96674,1.37611 -0.78289,1.28018 -2.34627,1.27847 -3.13054,-0.003 z m -129.90003,-7.41781 c -2.94188,-0.85986 -4.73008,-1.02311 -6.52275,-0.59548 -2.66164,0.6349 -5.18419,0.0707 -7.495,-1.67625 -1.15541,-0.87358 -1.11478,-1.2035 0.25477,-2.06235 1.34201,-0.84213 2.21855,-0.89353 4.97142,-0.29149 1.83777,0.40201 5.40969,0.73093 7.9374,0.73093 7.24815,0 14.05562,2.58924 12.08048,4.59463 -0.93541,0.94947 -6.84224,0.58113 -11.22563,-0.69999 z m 181.70229,-2.25425 c -3.11162,-0.55498 -7.23094,-0.77752 -10.3639,-0.55991 -5.70095,0.39597 -6.71451,-0.005 -8.42731,-3.33805 -0.80975,-1.57559 -1.76789,-2.02961 -5.17489,-2.45235 -5.98051,-0.74202 -7.52564,-2.12693 -7.97493,-7.14738 -0.43793,-4.89609 0.45342,-5.74832 7.15278,-6.83996 3.24589,-0.52891 23.79224,-1.07179 30.13149,-0.79613 2.40962,0.10479 7.43062,3.37146 8.0937,5.26566 0.76913,2.19671 4.89844,3.85936 9.58548,3.85936 4.14927,0 18.47688,-2.34991 23.45553,-3.84701 2.27225,-0.68329 7.15244,-1.73562 10.84485,-2.33849 3.69242,-0.60288 11.5947,-2.08226 17.56041,-3.28752 11.65426,-2.35457 18.03826,-2.73689 21.23216,-1.27158 1.96998,0.90378 1.96412,0.94701 -0.33395,2.48091 -4.29663,2.8695 -20.78185,7.5604 -28.78535,8.19092 -3.98781,0.31416 -8.70239,1.04228 -10.47682,1.61803 -1.77477,0.57576 -3.89967,1.04683 -4.72216,1.04683 -0.82283,0 -4.21538,0.89973 -7.53941,1.9994 -6.08999,2.01468 -19.9566,5.12885 -22.83755,5.12885 -0.8545,0 -3.02416,0.57028 -4.82165,1.26727 -4.50354,1.74629 -10.47476,2.1136 -16.59986,1.02115 z M 845.0218,718.64966 c 0.23755,-0.44552 1.20292,-0.90412 2.14797,-1.01911 1.1981,-0.14581 1.52964,0.0994 1.09516,0.81002 -0.73298,1.19797 -3.87558,1.40058 -3.24313,0.2091 z m -42.41131,-2.26808 c 0.18936,-0.62372 1.38539,-1.22723 2.65785,-1.34112 1.75687,-0.15727 2.31323,0.11546 2.31323,1.13404 0,1.0087 -0.65896,1.34112 -2.65785,1.34112 -1.97411,0 -2.56903,-0.2918 -2.31323,-1.13404 z m 15.18108,-2.10608 c -3.21214,-2.11849 -4.64539,-2.59628 -7.84479,-2.61505 -2.15279,-0.0125 -5.07642,-0.43971 -6.49658,-0.94907 -1.42016,-0.50936 -3.82703,-0.93645 -5.34876,-0.94907 -6.5045,-0.054 -7.62892,-4.01347 -2.5191,-8.87012 1.44288,-1.37128 3.34469,-3.78032 4.22639,-5.3534 2.0137,-3.59201 3.03105,-4.35636 6.52413,-4.90194 4.413,-0.68925 13.187,-4.63122 17.275,-7.76138 4.54795,-3.48208 7.68573,-4.01407 15.38936,-2.60896 5.32052,0.9704 6.39881,0.97348 12.96047,0.0371 3.93651,-0.56177 9.57721,-1.02138 12.53458,-1.02138 4.98485,0 5.66687,0.19696 9.34999,2.69992 4.53005,3.07884 4.88466,4.65444 1.8784,8.3515 -1.55615,1.91411 -1.82882,2.88636 -1.06142,3.78608 2.17241,2.54663 6.01941,2.38223 15.7784,-0.67427 3.25036,-1.01794 7.51945,-1.85079 9.48667,-1.85079 1.96757,0 4.83439,-0.29986 6.37058,-0.66635 2.2244,-0.53061 3.59016,-0.4058 6.70453,0.61271 3.1123,1.01782 5.70061,1.25482 12.6723,1.16038 7.45541,-0.10098 9.09866,0.0731 11.02767,1.16839 1.88562,1.07064 2.18859,1.79864 1.80093,4.32931 -0.25477,1.67322 -1.27969,3.82158 -2.27466,4.7741 -1.69215,1.62042 -2.15107,1.70409 -7.12903,1.30005 -2.92605,-0.2375 -9.03842,-0.96723 -13.58293,-1.62163 -5.79115,-0.83393 -12.99489,-1.22427 -24.08418,-1.30503 l -15.8211,-0.11522 -4.4846,2.59363 c -5.31433,3.07335 -10.00378,3.83669 -15.20105,2.47426 -3.53611,-0.92706 -3.71101,-0.90216 -6.45148,0.91957 -1.54927,1.02984 -3.75508,1.87244 -4.90222,1.87244 -3.20044,0 -16.01975,4.46607 -17.85029,6.2189 -2.29016,2.1928 -4.40542,1.9476 -8.92721,-1.03472 z m 40.16935,-20.44946 c 1.70625,-0.74983 2.29566,-1.65888 2.29566,-3.54133 0,-3.47763 -2.71706,-4.41532 -8.05273,-2.7791 -4.57309,1.40246 -5.28196,3.16411 -2.24678,5.58513 2.48881,1.98499 4.6984,2.18799 8.00385,0.7353 z m 55.59107,18.24524 c 0.67272,-1.10002 4.31419,-1.79344 5.12015,-0.97505 0.96777,0.98233 -0.55705,1.88323 -3.18701,1.88323 -1.71005,0 -2.31495,-0.28414 -1.93314,-0.90818 z m -140.33071,-7.00305 c -0.5839,-1.02403 1.01012,-3.10516 2.37864,-3.10516 1.51862,0 1.18742,2.33391 -0.45239,3.18781 -1.11306,0.57947 -1.55959,0.5603 -1.92625,-0.0827 z m 181.23062,-3.88279 c -0.68168,-0.42769 -1.23941,-1.32391 -1.23941,-1.99158 0,-1.97587 3.56055,-1.07916 3.94167,0.99269 0.34807,1.89173 -0.67582,2.27026 -2.70226,0.99889 z m 73.5808,-0.19293 c -1.9583,-0.94808 -1.9404,-1.00663 0.7702,-2.52563 3.2668,-1.83095 12.6974,-2.93749 14.6216,-1.71565 0.9072,0.57614 0.2685,1.29421 -2.6634,2.98523 -4.2818,2.4712 -9.213,2.95782 -12.7284,1.25605 z M 892.63312,689.34646 c -4.59408,-2.01905 -3.13605,-5.52802 2.29739,-5.52802 2.70949,0 6.63981,2.05022 6.63981,3.46369 0,1.11529 -3.32404,3.01654 -5.27405,3.01654 -0.82283,0 -2.47125,-0.42849 -3.66315,-0.95221 z m -122.23391,-5.14335 c 0,-1.77326 26.20014,-13.04908 37.0536,-15.94683 9.59029,-2.56048 18.86213,-2.67565 26.46627,-0.32874 2.84031,0.87663 6.09377,1.60746 7.2299,1.62406 1.13613,0.0166 2.66852,0.27017 3.40563,0.56348 2.52564,1.00515 -1.40019,2.23687 -5.56634,1.74649 -2.99903,-0.35296 -4.49872,-0.12133 -7.62824,1.17798 -2.14246,0.88953 -5.59147,1.81701 -7.66507,2.06106 -3.8105,0.44852 -6.8178,2.30677 -6.8178,4.2129 0,1.14705 -3.34435,3.27297 -7.0223,4.46374 -3.47346,1.12457 -9.1145,-0.19962 -11.09687,-2.60487 -2.0681,-2.50893 -5.7767,-2.48192 -11.83329,0.0862 -8.46759,3.5904 -16.52549,5.02617 -16.52549,2.94456 z m 86.28201,-12.92281 c -2.60414,-1.1947 -1.14439,-2.36638 2.94774,-2.36638 4.15719,0 4.99001,0.46256 3.65351,2.02927 -1.21463,1.42403 -3.92997,1.56269 -6.60125,0.33711 z m 24.68737,-2.42857 c -2.44509,-2.48217 8.80602,-3.61305 15.0382,-1.5115 l 3.61426,1.21878 -5.68064,0.43738 c -8.71685,0.67115 -12.20648,0.63223 -12.97182,-0.14466 z"
         id="path5341"
         inkscape:connector-curvature="0" />
      <path
         style="fill:#2f200f"
         d="m 802.67556,805.62654 c -4.172,-1.05213 -2.86407,-2.5719 2.21339,-2.5719 5.0475,0 7.14624,1.44341 3.75507,2.5822 -2.29739,0.77134 -2.87303,0.77035 -5.96846,-0.0108 z m 26.98923,-1.28644 c -2.19272,-0.53388 -13.82047,-8.6673 -13.82047,-9.66729 0,-0.29249 0.71197,-0.9025 1.58197,-1.35557 1.237,-0.64403 2.44646,-0.66133 5.54224,-0.0793 2.17826,0.40942 5.47097,0.74443 7.317,0.74443 2.22991,0 5.06369,0.78616 8.44109,2.34167 3.91998,1.80535 6.48591,2.44536 11.20394,2.79441 6.49142,0.4802 10.32602,1.9793 10.32602,4.03668 0,1.49181 -5.18556,1.60801 -13.05927,0.29263 -5.58149,-0.93244 -9.8275,-0.73542 -13.27823,0.61614 -1.29519,0.50727 -2.88198,0.61033 -4.25429,0.27625 z m 77.62782,-0.52265 c -2.40687,-0.34842 -3.20491,-0.89667 -3.75335,-2.57958 -0.38318,-1.17543 -0.86655,-2.21678 -1.0745,-2.31411 -0.20657,-0.0974 -1.91592,-0.84366 -3.7957,-1.65849 l -3.41768,-1.48155 -11.55855,1.08308 c -6.35715,0.59569 -13.07063,1.37977 -14.91873,1.74238 -6.08965,1.19483 -12.64889,-0.58853 -12.64889,-3.43907 0,-0.72145 0.91165,-2.115 2.02575,-3.09675 1.51552,-1.33528 1.87013,-2.38816 1.40673,-4.17865 -0.51298,-1.98386 -0.0861,-2.86022 2.4833,-5.11925 5.7068,-5.01406 5.41417,-6.0442 -2.15244,-7.57435 l -3.98299,-0.80547 4.2412,-1.19137 c 8.21145,-2.30664 4.01466,-5.59847 -6.06761,-4.7593 -3.73683,0.311 -5.55911,0.14006 -7.64408,-0.71707 -2.91021,-1.19632 -3.4855,-1.18439 -21.29516,0.44117 -4.82855,0.44072 -13.65936,0.8155 -19.62403,0.83284 -5.96467,0.0173 -11.42841,0.2685 -12.14176,0.55813 -0.7137,0.28963 -2.92088,0.15822 -4.90566,-0.29203 -4.43469,-1.00619 -5.32293,-0.54388 -7.00509,3.6461 -1.55787,3.88044 -3.46278,4.7418 -7.92363,3.58255 -4.86159,-1.26347 -6.53549,-3.1724 -5.07952,-5.79287 0.64483,-1.16019 0.90924,-3.50173 0.58803,-5.20343 -0.36287,-1.92249 -0.13771,-3.3729 0.5901,-3.8306 1.83949,-1.1542 8.96783,-0.8637 12.51668,0.51008 2.36383,0.91506 6.92935,1.46457 17.16379,2.06576 18.64592,1.09532 22.06223,1.02461 30.78183,-0.63709 6.61984,-1.26159 8.47035,-1.35288 16.79851,-0.82877 5.35908,0.33726 11.06176,0.34898 13.34262,0.0274 7.56041,-1.06578 18.19594,-0.89083 22.66196,0.37279 3.99091,1.12905 4.36755,1.13087 8.90827,0.0428 4.06906,-0.97494 5.38456,-1.02317 9.27356,-0.33996 5.62108,0.98741 7.58176,0.68884 21.27898,-3.24029 6.04042,-1.73267 13.41526,-3.60361 16.38882,-4.15765 3.36018,-0.62606 7.09666,-1.98478 9.87157,-3.58977 2.4561,-1.42034 5.77119,-2.78744 7.36693,-3.038 5.50092,-0.86375 11.65598,-2.88498 12.77317,-4.19455 0.84177,-0.98719 0.72299,-2.04352 -0.47855,-4.25656 -2.08359,-3.83617 -1.0714,-4.94126 5.80802,-6.34116 3.00041,-0.61059 7.89024,-2.1186 10.86586,-3.35113 3.72994,-1.54497 7.09839,-2.36107 10.84486,-2.62769 2.98905,-0.21271 7.62687,-1.0742 10.30607,-1.91444 2.6795,-0.84023 5.8314,-1.52769 7.004,-1.52769 2.5426,0 3.8426,1.70937 2.3952,3.14901 -1.9855,1.97492 -13.229,5.828 -19.34412,6.62923 -7.77456,1.01866 -9.9029,2.31987 -9.9029,6.05465 0,3.50298 1.77098,4.07282 8.2204,2.64514 7.97802,-1.76606 18.53332,-0.92856 20.72812,1.64467 0.839,0.98345 0.2754,1.56844 -3.2008,3.32098 -2.3204,1.16999 -6.677,4.32017 -9.6812,7.0004 -7.27599,6.49139 -9.00773,7.4114 -13.00414,6.90989 -5.32638,-0.66837 -11.10789,1.44732 -16.625,6.0837 -1.89767,1.59458 -5.49369,3.11163 -11.91384,5.02588 l -9.1961,2.7419 -19.07145,0.71373 c -30.61072,1.14557 -32.06325,1.24572 -32.67951,2.25289 -0.30985,0.50594 0.18591,1.63639 1.10032,2.51213 3.30786,3.16725 1.95965,4.85628 -5.09914,6.38957 -5.1532,1.11939 -6.73139,2.61265 -4.3438,4.11054 1.66357,1.04372 1.98857,1.0448 5.41967,0.0173 2.00751,-0.60063 6.86118,-1.24442 10.78633,-1.43064 7.58865,-0.36002 16.64909,-2.68912 22.52184,-5.78942 1.6794,-0.8866 8.30027,-2.7863 14.71285,-4.22156 9.09247,-2.03499 12.53012,-2.52228 15.61246,-2.21304 2.59795,0.26065 5.42415,0.027 8.24795,-0.68188 2.3628,-0.59313 4.54554,-0.92185 4.85057,-0.73051 0.30641,0.19138 -0.062,1.51726 -0.8125,2.94645 -0.75191,1.42919 -1.0955,2.76879 -0.76396,2.97687 0.33051,0.20801 2.59623,0.65932 5.03236,1.00275 5.0179,0.70734 7.09288,1.57616 7.09288,2.96973 0,0.79731 -1.20602,0.88246 -7.17379,0.50646 -6.9834,-0.44003 -7.39378,-0.38162 -15.47647,2.2023 -7.03228,2.2481 -9.2677,2.65435 -14.60647,2.65435 -5.22378,0 -7.39378,0.37613 -12.66851,2.19591 -3.50065,1.20774 -8.10748,2.5426 -10.23789,2.96634 -7.11354,1.41505 -3.49686,3.26204 6.38745,3.26204 4.79343,0 6.26488,0.22139 6.26488,0.94268 0,0.97456 -2.09977,1.30117 -12.39412,1.92772 -3.12435,0.19009 -7.53975,0.47651 -9.81201,0.63636 -2.27226,0.15984 -5.50678,0.0916 -7.18825,-0.15186 z m -20.72469,-29.33269 c 6.29174,-0.5436 19.18851,-4.28363 18.52302,-5.37164 -0.25821,-0.42373 -4.21951,-1.14048 -8.80086,-1.59279 -7.76113,-0.76618 -8.78743,-0.72689 -15.02305,0.57511 -7.411,1.54733 -9.74282,3.26656 -7.69193,5.67095 1.11857,1.31149 4.82372,2.12396 6.79576,1.49028 0.55361,-0.17799 3.34228,-0.52525 6.19706,-0.77191 z m -35.40036,-14.32923 c -1.63327,-1.02482 -1.56441,-1.51802 0.38353,-2.74021 2.16931,-1.36108 3.75783,-1.28364 7.0557,0.34394 2.18653,1.07909 2.51118,1.55056 1.56234,2.26808 -1.46767,1.10939 -7.3053,1.19252 -9.00157,0.12818 z m 23.54883,-3.72694 c 0,-1.49099 3.42938,-2.74302 9.81201,-3.58222 27.25571,-3.58368 28.99433,-3.93104 37.18236,-7.42942 1.7042,-0.72811 4.26048,-1.33024 5.68064,-1.33804 3.86869,-0.0212 5.3281,-0.88409 4.9697,-2.93765 -0.24788,-1.41945 0.26165,-2.03182 2.20925,-2.65371 2.31495,-0.7393 2.90918,-0.58997 6.94863,1.74627 2.42959,1.40508 5.12497,2.5547 5.9898,2.5547 1.73656,0 5.70371,2.23455 5.70371,3.2128 0,1.5143 -9.26874,3.97073 -17.18789,4.55522 -11.36851,0.83907 -25.68062,2.86993 -32.3886,4.59586 -4.58616,1.17999 -7.91949,1.48536 -17.30012,1.58485 -6.39055,0.0678 -11.61949,-0.0711 -11.61949,-0.30866 z m 146.30741,-8.34491 c -2.7766,-1.92495 -2.1232,-3.24367 1.8385,-3.70998 4.1145,-0.48429 5.7478,-0.0317 5.7478,1.59274 0,1.21945 -3.0449,3.30231 -4.8272,3.30231 -0.5774,0 -1.8188,-0.53328 -2.7591,-1.18507 z m -243.91111,-2.05505 c -0.35117,-0.35641 -0.36356,-0.9269 -0.0344,-1.26774 0.84969,-0.86248 3.64284,-0.0857 3.64284,1.01306 0,1.03613 -2.66061,1.22357 -3.61495,0.25468 z m 239.36141,-9.13204 c -2.9418,-0.69191 -3.0038,-2.66124 -0.1721,-5.53447 2.8482,-2.8916 5.8342,-4.12615 9.9793,-4.12615 2.6269,0 3.6752,0.36891 4.5773,1.61097 0.6434,0.88603 2.2602,2.0592 3.5925,2.60703 4.2615,1.75189 2.5842,3.55827 -3.3037,3.55827 -1.3527,0 -4.6843,0.54695 -7.4038,1.21545 -3.3712,0.82877 -5.6834,1.04157 -7.2681,0.6689 z m -113.18238,-7.50055 c -1.48591,-0.93223 -0.56462,-3.3032 1.83227,-4.71598 2.01852,-1.18975 4.40611,-1.61211 11.98408,-2.11988 6.54582,-0.43861 9.79893,-0.42341 10.55256,0.0493 2.40653,1.50983 -4.95214,4.62649 -10.92335,4.62649 -1.96309,0 -4.69152,0.57469 -6.15334,1.29604 -2.6124,1.28938 -5.97844,1.68822 -7.29222,0.86403 z m -33.78258,-7.36063 c -0.48234,-0.18721 -1.38298,-1.75711 -2.00165,-3.48864 -0.9516,-2.66467 -0.8669,-3.32679 0.55222,-4.31057 2.51567,-1.74413 8.75163,-2.16995 14.34103,-0.97929 2.62997,0.56023 6.81918,1.0186 9.30902,1.0186 5.78599,0 7.79487,0.49951 7.79487,1.938 0,1.05335 -7.23644,5.76851 -9.04048,5.89044 -3.71479,0.25113 -20.27093,0.19697 -20.95501,-0.0685 z m 97.79994,-6.25965 c -0.36838,-0.23111 -0.66963,-0.6406 -0.66963,-0.90997 0,-0.73937 6.86875,-2.00943 9.5359,-1.7632 l 2.3418,0.21621 -2.58211,1.04928 c -3.06341,1.24489 -7.68366,1.99887 -8.62596,1.40768 z m -147.83742,-4.73229 c -1.71796,-1.12502 -4.50285,-2.10454 -6.64841,-2.33834 -4.28527,-0.46693 -11.6732,-3.38455 -11.13509,-4.3973 0.20313,-0.38026 1.84019,-0.88039 3.64043,-1.11139 1.80025,-0.23101 3.95545,-0.77539 4.78964,-1.20973 1.97755,-1.02978 5.72609,-7.34322 5.72609,-9.64442 0,-2.42497 1.36748,-3.39037 9.749,-6.88278 5.95504,-2.48126 7.70157,-2.91633 10.32844,-2.5726 1.73896,0.22752 3.84252,0.82205 4.67465,1.32117 1.32755,0.79604 1.29587,1.13853 -0.25821,2.78899 -2.7546,2.92602 -2.31047,4.94831 1.29277,5.88477 3.83254,0.99596 4.50354,2.2994 3.57777,6.94849 -0.65034,3.26615 -1.3062,4.05077 -5.75672,6.88755 -4.19231,2.67209 -13.52887,6.26159 -16.28725,6.26159 -0.40522,0 -2.06707,-0.8712 -3.69311,-1.936 z m 39.13203,-6.33621 c -4.04565,-1.69482 -4.67637,-6.65237 -1.03663,-8.14856 4.67671,-1.92272 7.27707,-1.94459 10.78874,-0.0907 3.70894,1.95803 3.97713,2.91549 1.54203,5.50189 -2.48984,2.6446 -8.20766,4.03042 -11.29414,2.73737 z m 65.68918,-2.73695 c -3.12435,-0.25897 -7.90469,-0.94977 -10.62279,-1.53509 -3.50031,-0.75374 -8.52957,-1.06423 -17.23919,-1.06423 -6.7634,0 -12.5611,-0.2681 -12.88403,-0.59578 -0.32363,-0.32768 0.14459,-1.05376 1.03525,-1.61351 2.09633,-1.31511 12.03848,-3.13122 14.24016,-2.60114 0.93334,0.22469 3.93375,-0.0961 6.66769,-0.71296 4.61543,-1.04126 5.20346,-1.04607 8.22074,-0.0671 2.01439,0.65353 5.77807,1.05437 9.90015,1.05437 7.85443,0 11.26867,1.27272 11.26867,4.20077 0,1.6219 -2.6279,3.7409 -4.32865,3.49053 -0.31674,-0.0467 -3.13365,-0.29685 -6.258,-0.55582 z M 805.51588,679.9303 c 0,-0.35641 0.46478,-0.64802 1.03285,-0.64802 0.56806,0 1.03284,0.29161 1.03284,0.64802 0,0.35642 -0.46478,0.64803 -1.03284,0.64803 -0.56807,0 -1.03285,-0.29161 -1.03285,-0.64803 z m -1.2518,-3.80183 c -2.18584,-0.63425 -3.49136,-1.39042 -3.07891,-1.78351 0.39351,-0.37534 3.78158,-1.75087 7.5284,-3.05674 6.86255,-2.39162 13.09025,-3.06381 16.35989,-1.76575 1.99063,0.79034 -0.0344,2.3422 -3.80981,2.93883 -1.5176,0.23893 -4.63575,1.22747 -6.92935,2.19675 -2.29395,0.96928 -4.64401,1.94439 -5.22309,2.16691 -0.57874,0.22253 -2.75976,-0.0909 -4.84713,-0.69649 z"
         id="path5339"
         inkscape:connector-curvature="0" />
    </g>
    <rect
       style="opacity:1;fill:#313110;fill-opacity:1;fill-rule:nonzero;stroke:none;stroke-width:2.5;stroke-linecap:round;stroke-linejoin:miter;stroke-miterlimit:4;stroke-dasharray:none;stroke-dashoffset:0;stroke-opacity:1"
       id="rect5393-9"
       width="800"
       height="6.250061"
       x="0"
       y="571.79175"
       rx="1.3283715"
       ry="0.092440851" />
    <g
       id="g4203">
      <path
         style="color:#000000;display:inline;overflow:visible;visibility:visible;opacity:1;fill:#ffa200;fill-opacity:1;fill-rule:evenodd;stroke:#000000;stroke-width:0.9;stroke-linecap:butt;stroke-linejoin:miter;stroke-miterlimit:4;stroke-dasharray:none;stroke-dashoffset:0;stroke-opacity:1;marker:none;marker-start:none;marker-mid:none;marker-end:none"
         d="m 495.78869,554.41972 -8.00244,13.53925 -1.29954,1.30662 -12.97935,1.57943 -1.95583,1.23613 6.47318,0.19246 0.56415,0.55138 13.81784,-0.59263 0.69585,-0.89374 -0.6435,-1.19381 2.31203,-5.1317 4.51924,-8.85268 3.02106,-4.41196 z"
         id="path4157"
         inkscape:connector-curvature="0"
         sodipodi:nodetypes="cccccccccccccc" />
      <path
         sodipodi:nodetypes="cccccccccccccc"
         inkscape:connector-curvature="0"
         id="path4155"
         d="m 485.08051,553.55826 -9.53515,14.58511 -1.50301,1.38065 -14.42808,1.08629 -2.22495,1.26901 7.14581,0.54373 0.5956,0.63942 15.30479,0.0493 0.81465,-0.95421 -0.65059,-1.35493 2.81697,-5.56492 5.44616,-9.57296 3.56408,-4.73162 z"
         style="color:#000000;display:inline;overflow:visible;visibility:visible;opacity:1;fill:#ffa200;fill-opacity:1;fill-rule:evenodd;stroke:#000000;stroke-width:0.9;stroke-linecap:butt;stroke-linejoin:miter;stroke-miterlimit:4;stroke-dasharray:none;stroke-dashoffset:0;stroke-opacity:1;marker:none;marker-start:none;marker-mid:none;marker-end:none" />
      <path
         sodipodi:nodetypes="zzzzzzzzzzzzzzzzzzzzzzzzzzzzzzzzzz"
         inkscape:connector-curvature="0"
         id="path5475"
         d="m 475.11401,490.59056 c -3.01492,-3.06038 -3.46023,-8.65379 -5.58634,-12.56547 -2.12612,-3.91169 -4.73857,-8.19848 -7.12738,-10.82564 -2.3888,-2.62717 -4.34708,-4.17711 -6.93475,-4.63956 -2.58767,-0.46245 -5.65015,1.1502 -7.12739,2.12646 -1.47725,0.97626 -0.73806,1.39807 -0.77053,3.09304 -0.0325,1.69497 0.22292,4.919 0.57791,6.95934 0.35498,2.04034 1.47497,3.29602 1.54105,5.21951 0.0661,1.92348 -0.0945,2.37814 -1.15579,5.99276 -1.06126,3.61462 -4.47984,11.38147 -5.20108,15.65851 -0.72124,4.27705 -0.79267,4.5452 0.96318,9.47244 1.75584,4.92724 6.17724,15.08924 9.43895,19.71813 3.26171,4.62887 5.93948,4.51067 9.6316,7.34597 3.69213,2.8353 9.37236,7.08623 12.5211,9.66575 3.14873,2.57952 4.33197,4.60022 6.35684,5.79945 2.02487,1.19923 3.27589,1.1272 5.3937,1.15989 2.1178,0.0327 4.98907,-0.93407 7.12739,-0.96659 2.13832,-0.0325 3.12544,1.63078 5.58632,0.77326 2.46088,-0.85751 4.43501,-1.84167 8.28319,-5.60612 3.84818,-3.76445 11.57646,-12.33759 14.64003,-16.81842 3.06357,-4.48082 3.54342,-7.10899 3.46738,-9.66574 -0.076,-2.55674 -4.17764,-1.23617 -3.85264,-3.28635 0.325,-2.05018 4.18013,-3.30706 5.20105,-5.21951 1.02092,-1.91245 0.57791,-3.18156 0.57791,-5.60613 0,-2.42457 -0.44947,-6.7015 -0.57791,-8.89249 -0.12844,-2.191 -2.44643,-1.4428 -0.19262,-4.25293 2.25381,-2.81014 11.17776,-7.52438 12.90633,-11.5989 1.72857,-4.07452 -3.97822,-5.3029 -4.62317,-7.92591 -0.64495,-2.62302 3.32849,-5.60295 0.96318,-6.95934 -2.36531,-1.3564 -4.76342,-1.11795 -9.05372,2.31978 -4.2903,3.43772 -10.88099,13.75178 -15.79583,17.59166 -4.91483,3.83988 -8.54073,3.76194 -12.90633,4.83287 -4.3656,1.07094 -8.92703,2.04494 -13.09898,1.54652 -4.17194,-0.49842 -8.15773,-1.38586 -11.17265,-4.44624 z"
         style="color:#000000;display:inline;overflow:visible;visibility:visible;opacity:1;fill:#ffffee;fill-opacity:1;fill-rule:evenodd;stroke:#000000;stroke-width:0.9;stroke-linecap:butt;stroke-linejoin:miter;stroke-miterlimit:4;stroke-dasharray:none;stroke-dashoffset:0;stroke-opacity:1;marker:none;marker-start:none;marker-mid:none;marker-end:none" />
      <path
         sodipodi:nodetypes="zzzzzzzzzzzzz"
         inkscape:connector-curvature="0"
         id="path5477"
         d="m 445.28646,473.37604 c -0.17203,1.42712 -0.22753,2.35202 0.20431,3.28066 0.43184,0.92864 1.27678,1.5072 2.1794,1.84537 0.90261,0.33818 2.08434,0.35075 2.92854,0.0684 0.84421,-0.28239 1.09253,-0.64823 1.77074,-1.64033 0.67821,-0.9921 1.45254,-2.8471 2.2475,-4.23752 0.79496,-1.39043 2.3804,-2.94974 2.51991,-4.10083 0.13951,-1.1511 -1.25928,-0.59196 -1.90696,-0.95687 -0.64769,-0.3649 -1.20743,-0.8968 -1.97507,-1.23024 -0.76764,-0.33345 -1.82222,-0.67031 -2.58801,-0.75182 -0.7658,-0.0815 -1.17954,-0.16941 -1.90697,0.27339 -0.72743,0.44279 -1.64728,0.9681 -2.2475,2.25545 -0.60022,1.28736 -1.05386,3.76727 -1.22589,5.19439 z"
         style="color:#000000;display:inline;overflow:visible;visibility:visible;opacity:1;fill:#ff3330;fill-opacity:1;fill-rule:evenodd;stroke:#000000;stroke-width:0.9;stroke-linecap:butt;stroke-linejoin:miter;stroke-miterlimit:4;stroke-dasharray:none;stroke-dashoffset:0;stroke-opacity:1;marker:none;marker-start:none;marker-mid:none;marker-end:none" />
      <path
         sodipodi:nodetypes="cczzccccccccccczccc"
         inkscape:connector-curvature="0"
         id="path5479"
         d="m 450.62549,464.36736 c 0.49945,-0.7746 1.96205,-1.11424 2.4615,-1.88884 -0.0454,-0.59234 -0.1023,-2.2588 -0.377,-2.84026 -0.27471,-0.58146 -1.2486,-1.19608 -1.49833,-1.43529 -0.24972,-0.23922 -1.29402,0.68347 -1.29402,0.68347 l -1.29399,-1.91372 -0.47674,3.28066 -1.83887,-2.18711 0.61295,3.89579 -1.83884,-2.59719 0.34051,3.21232 -1.36209,-0.54678 -0.27244,2.25546 -0.74915,0.0683 0.13621,1.50364 c 0,0 -0.91051,0.16687 -1.08969,0.61512 -0.17918,0.44826 0.47674,1.57199 0.47674,1.57199 l 4.49498,-1.2986 c 1.43022,-1.00242 2.13805,-1.37658 3.56827,-2.379 z"
         style="color:#000000;display:inline;overflow:visible;visibility:visible;opacity:1;fill:#b23b2a;fill-opacity:1;fill-rule:evenodd;stroke:#000000;stroke-width:0.9;stroke-linecap:butt;stroke-linejoin:miter;stroke-miterlimit:4;stroke-dasharray:none;stroke-dashoffset:0;stroke-opacity:1;marker:none;marker-start:none;marker-mid:none;marker-end:none" />
      <path
         inkscape:connector-curvature="0"
         id="path5481"
         d="m 449.03229,469.99285 c -0.0681,-0.13669 -2.1113,-0.95686 -2.1113,-0.95686 0,0 -0.0341,-2.3238 -0.17026,-2.25545 -0.1362,0.0683 -4.15444,1.57198 -4.15444,1.57198 l -0.17028,0.92269 -1.70263,1.12773 -0.68105,2.18711 2.07722,-0.44426 2.11127,-0.17087 1.90697,1.26442 0.91943,-1.8112 z"
         style="color:#000000;display:inline;overflow:visible;visibility:visible;opacity:1;fill:#cbca41;fill-opacity:1;fill-rule:evenodd;stroke:#000000;stroke-width:0.9;stroke-linecap:butt;stroke-linejoin:miter;stroke-miterlimit:4;stroke-dasharray:none;stroke-dashoffset:0;stroke-opacity:1;marker:none;marker-start:none;marker-mid:none;marker-end:none" />
      <g
         transform="matrix(0.24656898,0,0,0.24744318,192.13756,284.12563)"
         style="fill:#ffffee;fill-opacity:1;stroke-width:3.64364071;stroke-miterlimit:4;stroke-dasharray:none"
         id="g5487">
        <path
           style="color:#000000;display:inline;overflow:visible;visibility:visible;opacity:1;fill:#ffffee;fill-opacity:1;fill-rule:evenodd;stroke:#000000;stroke-width:3.64364071;stroke-linecap:butt;stroke-linejoin:miter;stroke-miterlimit:4;stroke-dasharray:none;stroke-dashoffset:0;stroke-opacity:1;marker:none;marker-start:none;marker-mid:none;marker-end:none"
           d="m 1046.159,735.13072 c -1.2999,1.03508 -2.6389,2.68347 -3.0384,4.28132 -0.3995,1.59785 -0.071,3.23236 0.8287,4.55752 0.9001,1.32516 2.4086,2.37124 4.1432,2.76214 1.7346,0.3909 3.8765,0.11425 5.6623,-0.55243 1.7858,-0.66668 3.6778,-1.80015 4.6957,-3.31457 1.0179,-1.51442 1.5085,-3.38153 0.9667,-5.10995 -0.5418,-1.72842 -2.2709,-3.37007 -3.867,-4.1432 -1.5961,-0.77313 -3.3769,-0.39611 -4.9718,-0.13811 -1.5949,0.258 -3.1195,0.6222 -4.4194,1.65728 z"
           id="path5483"
           inkscape:connector-curvature="0"
           sodipodi:nodetypes="zzzzzzzzzz" />
        <path
           style="color:#000000;display:inline;overflow:visible;visibility:visible;opacity:1;fill:#ffffee;fill-opacity:1;fill-rule:evenodd;stroke:#000000;stroke-width:3.64364071;stroke-linecap:butt;stroke-linejoin:miter;stroke-miterlimit:4;stroke-dasharray:none;stroke-dashoffset:0;stroke-opacity:1;marker:none;marker-start:none;marker-mid:none;marker-end:none"
           d="m 1047.9492,739.37375 c 0.2826,-0.52181 1.0823,-0.87507 1.7578,-0.78125 0.6755,0.0938 1.5635,0.71081 1.7578,1.26953 0.1943,0.55872 -0.4371,0.78515 -0.9765,0.97656 -0.5394,0.19141 -1.5181,0.40504 -2.0508,0.0977 -0.5327,-0.30734 -0.7709,-1.04073 -0.4883,-1.56254 z"
           id="path5485"
           inkscape:connector-curvature="0"
           sodipodi:nodetypes="zzzzzz" />
      </g>
      <path
         sodipodi:nodetypes="czzc"
         inkscape:connector-curvature="0"
         id="path5491"
         d="m 454.30975,509.34211 c 4.81579,4.83288 3.37691,14.68379 14.44739,14.49863 11.07048,-0.18516 35.37232,-8.25009 43.34221,-15.4652 7.9699,-7.21511 -10.53054,-6.31496 -15.79582,-9.47244"
         style="color:#000000;display:inline;overflow:visible;visibility:visible;opacity:1;fill:none;fill-opacity:0.75;fill-rule:evenodd;stroke:#000000;stroke-width:0.9;stroke-linecap:butt;stroke-linejoin:miter;stroke-miterlimit:4;stroke-dasharray:none;stroke-dashoffset:0;stroke-opacity:1;marker:none;marker-start:none;marker-mid:none;marker-end:none" />
    </g>
    <g
       id="g4172">
      <path
         sodipodi:nodetypes="cccccccccccccc"
         inkscape:connector-curvature="0"
         id="path4217"
         d="m 344.61681,553.63847 -8.00244,13.53925 -1.29953,1.30662 -12.97936,1.57943 -1.95582,1.23613 6.47318,0.19246 0.56414,0.55138 13.81784,-0.59263 0.69585,-0.89374 -0.6435,-1.19381 2.31203,-5.1317 4.51925,-8.85268 3.02105,-4.41196 z"
         style="color:#000000;display:inline;overflow:visible;visibility:visible;opacity:1;fill:#ffa200;fill-opacity:1;fill-rule:evenodd;stroke:#000000;stroke-width:0.89999998;stroke-linecap:butt;stroke-linejoin:miter;stroke-miterlimit:4;stroke-dasharray:none;stroke-dashoffset:0;stroke-opacity:1;marker:none;marker-start:none;marker-mid:none;marker-end:none" />
      <path
         style="color:#000000;display:inline;overflow:visible;visibility:visible;opacity:1;fill:#ffa200;fill-opacity:1;fill-rule:evenodd;stroke:#000000;stroke-width:0.89999998;stroke-linecap:butt;stroke-linejoin:miter;stroke-miterlimit:4;stroke-dasharray:none;stroke-dashoffset:0;stroke-opacity:1;marker:none;marker-start:none;marker-mid:none;marker-end:none"
         d="m 333.90863,552.77701 -9.53514,14.58511 -1.50302,1.38065 -14.42808,1.08629 -2.22495,1.26901 7.14581,0.54373 0.5956,0.63942 15.30479,0.0493 0.81465,-0.95421 -0.65059,-1.35493 2.81697,-5.56492 5.44616,-9.57296 3.56408,-4.73162 z"
         id="path4219"
         inkscape:connector-curvature="0"
         sodipodi:nodetypes="cccccccccccccc" />
    </g>
    <g
       id="g4343"
       inkscape:export-filename="/home/beej/src/go/src/github.com/beejjorgensen/eggdrop/assets/chicken.png"
       inkscape:export-xdpi="90.631371"
       inkscape:export-ydpi="90.631371">
      <path
         style="color:#000000;display:inline;overflow:visible;visibility:visible;opacity:1;fill:#ffffee;fill-opacity:1;fill-rule:evenodd;stroke:#000000;stroke-width:0.89999998;stroke-linecap:butt;stroke-linejoin:miter;stroke-miterlimit:4;stroke-dasharray:none;stroke-dashoffset:0;stroke-opacity:1;marker:none;marker-start:none;marker-mid:none;marker-end:none"
         d="m 323.94213,489.80931 c -3.01492,-3.06038 -3.46023,-8.65379 -5.58634,-12.56547 -2.12612,-3.91169 -4.73856,-8.19848 -7.12738,-10.82564 -2.3888,-2.62717 -4.34708,-4.17711 -6.93475,-4.63956 -2.58767,-0.46245 -5.65015,1.1502 -7.12739,2.12646 -1.47725,0.97626 -0.73806,1.39807 -0.77053,3.09304 -0.0325,1.69497 0.22292,4.919 0.57791,6.95934 0.35498,2.04034 1.47497,3.29602 1.54105,5.21951 0.0661,1.92348 -0.0945,2.37814 -1.15579,5.99276 -1.06126,3.61462 -4.47984,11.38147 -5.20108,15.65851 -0.72124,4.27705 -0.79267,4.5452 0.96318,9.47244 1.75584,4.92724 6.17724,15.08924 9.43895,19.71813 3.26171,4.62887 5.93948,4.51067 9.6316,7.34597 3.69213,2.8353 9.37236,7.08623 12.5211,9.66575 3.14873,2.57952 4.33197,4.60022 6.35684,5.79945 2.02487,1.19923 3.27589,1.1272 5.3937,1.15989 2.1178,0.0327 4.98907,-0.93407 7.12739,-0.96659 2.13832,-0.0325 3.12544,1.63078 5.58632,0.77326 2.46088,-0.85751 4.43501,-1.84167 8.28319,-5.60612 3.84818,-3.76445 11.57646,-12.33759 14.64003,-16.81842 3.06357,-4.48082 3.54342,-7.10899 3.46738,-9.66574 -0.076,-2.55674 -4.17764,-1.23617 -3.85264,-3.28635 0.32501,-2.05018 4.18013,-3.30706 5.20106,-5.21951 1.02092,-1.91245 0.5779,-3.18156 0.5779,-5.60613 0,-2.42457 -0.44947,-6.7015 -0.5779,-8.89249 -0.12844,-2.191 -2.44643,-1.4428 -0.19263,-4.25293 2.25382,-2.81014 11.17777,-7.52438 12.90633,-11.5989 1.72857,-4.07452 -3.97821,-5.3029 -4.62316,-7.92591 -0.64495,-2.62302 3.32849,-5.60295 0.96318,-6.95934 -2.36532,-1.3564 -4.76342,-1.11795 -9.05372,2.31978 -4.2903,3.43772 -10.88099,13.75178 -15.79584,17.59166 -4.91482,3.83988 -8.54072,3.76194 -12.90633,4.83287 -4.3656,1.07094 -8.92703,2.04494 -13.09898,1.54652 -4.17194,-0.49842 -8.15773,-1.38586 -11.17265,-4.44624 z"
         id="path4221"
         inkscape:connector-curvature="0"
         sodipodi:nodetypes="zzzzzzzzzzzzzzzzzzzzzzzzzzzzzzzzzz" />
      <path
         style="color:#000000;display:inline;overflow:visible;visibility:visible;opacity:1;fill:#ff3330;fill-opacity:1;fill-rule:evenodd;stroke:#000000;stroke-width:0.90000004;stroke-linecap:butt;stroke-linejoin:miter;stroke-miterlimit:4;stroke-dasharray:none;stroke-dashoffset:0;stroke-opacity:1;marker:none;marker-start:none;marker-mid:none;marker-end:none"
         d="m 292.68411,482.37751 c -0.31788,2.6156 -0.42042,4.31073 0.37752,6.01273 0.79796,1.702 2.3592,2.76236 4.02704,3.38215 1.66782,0.61982 3.85139,0.64285 5.41128,0.12537 1.55991,-0.51756 2.01875,-1.18807 3.27192,-3.00637 1.25318,-1.8183 2.68397,-5.2181 4.15288,-7.76644 1.4689,-2.54835 4.39844,-5.40622 4.65623,-7.51592 0.25778,-2.10971 -2.32687,-1.08493 -3.52363,-1.75373 -1.19679,-0.66878 -2.23106,-1.64364 -3.64949,-2.25476 -1.41842,-0.61114 -3.36705,-1.22853 -4.78206,-1.37792 -1.41503,-0.14937 -2.17952,-0.31049 -3.52365,0.50106 -1.34413,0.81154 -3.04381,1.77432 -4.15287,4.13375 -1.10907,2.35944 -1.9473,6.90457 -2.26517,9.52017 z"
         id="path4223"
         inkscape:connector-curvature="0"
         sodipodi:nodetypes="zzzzzzzzzzzzz" />
      <path
         style="color:#000000;display:inline;overflow:visible;visibility:visible;opacity:1;fill:#b23b2a;fill-opacity:1;fill-rule:evenodd;stroke:#000000;stroke-width:0.90000004;stroke-linecap:butt;stroke-linejoin:miter;stroke-miterlimit:4;stroke-dasharray:none;stroke-dashoffset:0;stroke-opacity:1;marker:none;marker-start:none;marker-mid:none;marker-end:none"
         d="m 302.54945,465.86658 c 0.92287,-1.41967 3.6254,-2.04216 4.5483,-3.46182 -0.084,-1.08563 -0.18905,-4.13989 -0.69663,-5.20558 -0.50761,-1.06568 -2.30714,-2.19215 -2.76858,-2.63058 -0.46143,-0.43843 -2.39106,1.25266 -2.39106,1.25266 l -2.391,-3.50743 -0.88091,6.01273 -3.39782,-4.00849 1.13262,7.14012 -3.39776,-4.76008 0.62916,5.88749 -2.51683,-1.00214 -0.50341,4.13377 -1.38426,0.12518 0.25169,2.75583 c 0,0 -1.68242,0.30584 -2.0135,1.12738 -0.33108,0.82157 0.8809,2.88112 0.8809,2.88112 l 8.30572,-2.38005 c 2.64272,-1.83722 3.95063,-2.52297 6.59336,-4.36018 z"
         id="path4225"
         inkscape:connector-curvature="0"
         sodipodi:nodetypes="cczzccccccccccczccc" />
      <path
         style="color:#000000;display:inline;overflow:visible;visibility:visible;opacity:1;fill:#cbca41;fill-opacity:1;fill-rule:evenodd;stroke:#000000;stroke-width:0.90000004;stroke-linecap:butt;stroke-linejoin:miter;stroke-miterlimit:4;stroke-dasharray:none;stroke-dashoffset:0;stroke-opacity:1;marker:none;marker-start:none;marker-mid:none;marker-end:none"
         d="m 299.60555,476.17687 c -0.12582,-0.25052 -3.9012,-1.75372 -3.9012,-1.75372 0,0 -0.063,-4.25901 -0.3146,-4.13374 -0.25167,0.12518 -7.67646,2.88109 -7.67646,2.88109 l -0.31464,1.69109 -3.14608,2.06688 -1.25843,4.00849 3.83824,-0.81423 3.90115,-0.31317 3.52365,2.31741 1.6989,-3.31954 z"
         id="path4227"
         inkscape:connector-curvature="0" />
      <g
         transform="translate(-2,0)"
         id="g4295">
        <path
           sodipodi:nodetypes="zzzzzzzzzz"
           inkscape:connector-curvature="0"
           id="path4231"
           d="m 301.35613,467.71545 c -0.8281,0.66069 -1.6811,1.71285 -1.9356,2.73276 -0.2545,1.0199 -0.0452,2.0632 0.52792,2.90905 0.57341,0.84584 1.53439,1.51355 2.63941,1.76306 1.10501,0.24951 2.4695,0.0729 3.60713,-0.35261 1.13764,-0.42554 2.34293,-1.14903 2.99137,-2.11568 0.64845,-0.96665 0.96099,-2.15842 0.61584,-3.26167 -0.34515,-1.10324 -1.44667,-2.1511 -2.46346,-2.64459 -1.01678,-0.49348 -2.15123,-0.25283 -3.16726,-0.0881 -1.01602,0.16468 -1.98726,0.39715 -2.81535,1.05783 z"
           style="color:#000000;display:inline;overflow:visible;visibility:visible;opacity:1;fill:#ffffee;fill-opacity:1;fill-rule:evenodd;stroke:#000000;stroke-width:0.90000004;stroke-linecap:butt;stroke-linejoin:miter;stroke-miterlimit:4;stroke-dasharray:none;stroke-dashoffset:0;stroke-opacity:1;marker:none;marker-start:none;marker-mid:none;marker-end:none" />
        <path
           sodipodi:nodetypes="zzzzzz"
           inkscape:connector-curvature="0"
           id="path4233"
           d="m 302.49657,470.42377 c 0.18003,-0.33307 0.68947,-0.55856 1.11979,-0.49867 0.43033,0.0599 0.99602,0.45371 1.1198,0.81033 0.12378,0.35663 -0.27845,0.50116 -0.62207,0.62334 -0.34362,0.12218 -0.9671,0.25854 -1.30645,0.0624 -0.33936,-0.19617 -0.4911,-0.66429 -0.31107,-0.99736 z"
           style="color:#000000;display:inline;overflow:visible;visibility:visible;opacity:1;fill:#000000;fill-opacity:1;fill-rule:evenodd;stroke:#000000;stroke-width:0.90000004;stroke-linecap:butt;stroke-linejoin:miter;stroke-miterlimit:4;stroke-dasharray:none;stroke-dashoffset:0;stroke-opacity:1;marker:none;marker-start:none;marker-mid:none;marker-end:none" />
      </g>
      <path
         style="color:#000000;display:inline;overflow:visible;visibility:visible;opacity:1;fill:none;fill-opacity:0.75;fill-rule:evenodd;stroke:#000000;stroke-width:0.89999998;stroke-linecap:butt;stroke-linejoin:miter;stroke-miterlimit:4;stroke-dasharray:none;stroke-dashoffset:0;stroke-opacity:1;marker:none;marker-start:none;marker-mid:none;marker-end:none"
         d="m 303.13787,508.56086 c 4.81579,4.83288 3.37692,14.68379 14.44739,14.49863 11.07048,-0.18516 35.37232,-8.25009 43.34221,-15.4652 7.9699,-7.21511 -10.53054,-6.31496 -15.79582,-9.47244"
         id="path4235"
         inkscape:connector-curvature="0"
         sodipodi:nodetypes="czzc" />
    </g>
    <g
       id="g4184"
       transform="translate(-62.304687,-1.953125)"
       inkscape:export-filename="/home/beej/src/go/src/github.com/beejjorgensen/eggdrop/assets/legs1.png"
       inkscape:export-xdpi="90.631371"
       inkscape:export-ydpi="90.631371">
      <path
         style="color:#000000;display:inline;overflow:visible;visibility:visible;opacity:1;fill:#ffa200;fill-opacity:1;fill-rule:evenodd;stroke:#000000;stroke-width:0.89999998;stroke-linecap:butt;stroke-linejoin:miter;stroke-miterlimit:4;stroke-dasharray:none;stroke-dashoffset:0;stroke-opacity:1;marker:none;marker-start:none;marker-mid:none;marker-end:none"
         d="m 405.16008,553.37423 -6.19486,14.45593 -1.12071,1.46289 -12.66848,3.23545 -1.78061,1.47738 6.44418,-0.64158 0.63036,0.47425 13.62689,-2.36467 0.57514,-0.9758 -0.79168,-1.10114 1.6329,-5.38642 3.34328,-9.36034 2.4286,-4.76383 z"
         id="path4178"
         inkscape:connector-curvature="0"
         sodipodi:nodetypes="cccccccccccccc" />
      <path
         sodipodi:nodetypes="cccccccccccccc"
         inkscape:connector-curvature="0"
         id="path4180"
         d="m 402.31712,554.74121 -11.02554,13.49378 -1.64072,1.21378 -14.46201,-0.44716 -2.34678,1.02635 7.0481,1.29712 0.52456,0.69888 15.21358,1.66918 0.91108,-0.86261 -0.5035,-1.41619 3.39024,-5.23545 6.42894,-8.94265 4.04494,-4.32774 z"
         style="color:#000000;display:inline;overflow:visible;visibility:visible;opacity:1;fill:#ffa200;fill-opacity:1;fill-rule:evenodd;stroke:#000000;stroke-width:0.89999998;stroke-linecap:butt;stroke-linejoin:miter;stroke-miterlimit:4;stroke-dasharray:none;stroke-dashoffset:0;stroke-opacity:1;marker:none;marker-start:none;marker-mid:none;marker-end:none" />
    </g>
    <path
       style="opacity:1;fill:#ffffff;fill-opacity:1;fill-rule:nonzero;stroke:#000000;stroke-width:1.3;stroke-linecap:round;stroke-linejoin:miter;stroke-miterlimit:4;stroke-dasharray:none;stroke-dashoffset:0;stroke-opacity:1"
       d="m 371.73558,639.03888 c -0.91326,5.94181 -6.84835,12.63167 -12.84872,12.63167 -6.00037,0 -11.93546,-6.68986 -12.84871,-12.63167 -1.38696,-9.02376 3.73601,-24.17668 12.84871,-24.17668 9.1127,0 14.23568,15.15292 12.84872,24.17668 z"
       id="ellipse4172"
       inkscape:connector-curvature="0"
       sodipodi:nodetypes="aaaaa"
       inkscape:export-filename="/home/beej/src/go/src/github.com/beejjorgensen/eggdrop/assets/egg.png"
       inkscape:export-xdpi="90.631371"
       inkscape:export-ydpi="90.631371" />
  </g>
</svg>
